<?xml version="1.0" standalone="no"?>
<!DOCTYPE svg PUBLIC "-//W3C//DTD SVG 1.1//EN" "http://www.w3.org/Graphics/SVG/1.1/DTD/svg11.dtd" >
<!--
2013-9-30: Created.
-->
<svg>
<metadata>
Created by iconfont
</metadata>
<defs>

<font id="iconfont" horiz-adv-x="1024" >
  <font-face
    font-family="iconfont"
    font-weight="500"
    font-stretch="normal"
    units-per-em="1024"
    ascent="896"
    descent="-128"
  />
    <missing-glyph />
    
    <glyph glyph-name="x" unicode="x" horiz-adv-x="1001"
d="M281 543q-27 -1 -53 -1h-83q-18 0 -36.5 -6t-32.5 -18.5t-23 -32t-9 -45.5v-76h912v41q0 16 -0.5 30t-0.5 18q0 13 -5 29t-17 29.5t-31.5 22.5t-49.5 9h-133v-97h-438v97zM955 310v-52q0 -23 0.5 -52t0.5 -58t-10.5 -47.5t-26 -30t-33 -16t-31.5 -4.5q-14 -1 -29.5 -0.5
t-29.5 0.5h-32l-45 128h-439l-44 -128h-29h-34q-20 0 -45 1q-25 0 -41 9.5t-25.5 23t-13.5 29.5t-4 30v167h911zM163 247q-12 0 -21 -8.5t-9 -21.5t9 -21.5t21 -8.5q13 0 22 8.5t9 21.5t-9 21.5t-22 8.5zM316 123q-8 -26 -14 -48q-5 -19 -10.5 -37t-7.5 -25t-3 -15t1 -14.5
t9.5 -10.5t21.5 -4h37h67h81h80h64h36q23 0 34 12t2 38q-5 13 -9.5 30.5t-9.5 34.5q-5 19 -11 39h-368zM336 498v228q0 11 2.5 23t10 21.5t20.5 15.5t34 6h188q31 0 51.5 -14.5t20.5 -52.5v-227h-327z" />
    

    
    <glyph glyph-name="maximize" unicode="&#58936;" d="M811.86816 612.89344c-2.49856 1.024-5.16096 1.57696-7.82336 1.57696L575.54944 614.4704c-11.32544 0-20.48-9.15456-20.48-20.48s9.15456-20.48 20.48-20.48l179.05664 0L444.416 263.32032c-8.00768-8.00768-8.00768-20.95104 0-28.95872 3.9936-3.9936 9.23648-6.00064 14.47936-6.00064s10.48576 2.00704 14.47936 6.00064L783.5648 544.5312l0-179.05664c0-11.32544 9.15456-20.48 20.48-20.48s20.48 9.15456 20.48 20.48L824.5248 593.96992c0 2.6624-0.53248 5.3248-1.57696 7.82336C820.85888 606.81088 816.88576 610.80448 811.86816 612.89344zM804.0448 238.8672c-11.32544 0-20.48-9.15456-20.48-20.48l0-218.3168-573.44 0 0 573.44 218.78784 0c11.32544 0 20.48 9.15456 20.48 20.48s-9.15456 20.48-20.48 20.48L189.6448 614.4704c-11.32544 0-20.48-9.15456-20.48-20.48l0-614.4c0-11.32544 9.15456-20.48 20.48-20.48l614.4 0c11.32544 0 20.48 9.15456 20.48 20.48l0 238.7968C824.5248 229.69216 815.37024 238.8672 804.0448 238.8672z"  horiz-adv-x="1024" />

    
    <glyph glyph-name="tuodong" unicode="&#59059;" d="M941.033244 277.8816c-1.024-3.640889-2.616889-7.145244-5.484089-10.012444l-108.726044-108.452978c-8.897422-8.874667-23.278933-8.874667-32.176356 0s-8.897422 23.233422 0 32.108089l74.9568 74.752L671.288889 266.276267c-12.583822 0-22.755556 10.148978-22.755556 22.687289s10.171733 22.687289 22.755556 22.687289l195.106133 0-74.387911 74.228622c-9.170489 9.124978-9.170489 23.9616 0 33.109333s24.052622 9.147733 33.223111 0l112.2304-111.934578c4.801422-4.778667 6.9632-11.081956 6.735644-17.362489 0.022756-0.273067 0.159289-0.477867 0.159289-0.728178C944.355556 284.867556 942.944711 281.226667 941.033244 277.8816zM609.006933 571.268978 534.755556 645.520356 534.755556 447.911111c0-12.583822-10.171733-22.755556-22.755556-22.755556s-22.755556 10.171733-22.755556 22.755556L489.244444 643.745422l-75.116089-75.116089c-9.170489-9.170489-24.052622-9.170489-33.223111 0-9.147733 9.147733-9.147733 24.052622 0 33.200356l112.253156 112.253156c4.892444 4.892444 11.355022 6.985956 17.726578 6.667378C511.294578 720.772978 511.5904 720.977778 512 720.977778c4.255289 0 8.009956-1.479111 11.400533-3.504356 3.299556-1.069511 6.417067-2.685156 9.033956-5.279289l108.726044-108.726044c8.897422-8.897422 8.897422-23.278933 0-32.176356S617.8816 562.371556 609.006933 571.268978zM352.711111 265.980444 154.0096 265.980444l75.3664-75.1616c8.897422-8.874667 8.897422-23.233422 0-32.108089s-23.278933-8.874667-32.176356 0l-108.726044 108.475733c-3.026489 3.003733-4.619378 6.712889-5.597867 10.581333-0.523378 0.932978-0.887467 1.979733-1.319822 2.980978-0.068267 0.159289-0.159289 0.318578-0.2048 0.455111C80.372622 283.524978 79.644444 285.982578 79.644444 288.690489c0 0.182044 0.113778 0.364089 0.113778 0.523378-0.159289 6.166756 2.048 12.401778 6.781156 17.134933l112.2304 111.934578c9.170489 9.147733 24.052622 9.147733 33.223111 0s9.170489-23.984356 0-33.109333L157.991822 311.377778 352.711111 311.377778c12.583822 0 22.755556-10.148978 22.755556-22.687289S365.294933 265.980444 352.711111 265.980444zM414.833778 31.347911l74.410667-74.410667L489.244444 152.088889c0 12.561067 10.171733 22.755556 22.755556 22.755556s22.755556-10.194489 22.755556-22.755556l0-198.314667 74.9568 74.9568c8.897422 8.897422 23.278933 8.897422 32.176356 0s8.897422-23.278933 0-32.176356l-108.726044-108.726044c-2.8672-2.8672-6.371556-4.460089-10.0352-5.484089C519.7824-119.566933 516.141511-120.977778 512-120.977778c-0.273067 0-0.477867 0.159289-0.750933 0.159289-6.257778-0.227556-12.606578 1.934222-17.385244 6.712889l-112.253156 112.275911c-9.170489 9.147733-9.170489 24.052622 0 33.200356C390.803911 40.541156 405.663289 40.541156 414.833778 31.347911z"  horiz-adv-x="1024" />

    
    <glyph glyph-name="anniu" unicode="&#58885;" d="M892.099924 747.432449 128.469953 747.432449c-35.146475 0-63.636343-28.489868-63.636343-63.636343l0-286.360983c0-35.143405 28.489868-63.636343 63.636343-63.636343l254.543324 0 0 63.636343L128.469953 397.435123 128.469953 683.79713l763.629971 0 0-286.360983-190.908004 0 0-63.636343 190.908004 0c35.146475 0 63.635319 28.492938 63.635319 63.636343L955.735244 683.79713C955.736267 718.942581 927.246399 747.432449 892.099924 747.432449zM764.828262 238.345802c-60.654428 0-127.271662 0-127.271662 0l0 190.908004c0 0-21.878287 97.442286-95.454002 95.457072-73.581856-1.991354-95.454002-95.457072-95.454002-95.457072l0-318.178643-63.636343 63.636343c0 0-73.581856 16.905018-127.271662-31.81766-53.695946-48.719608-31.81766-127.271662-31.81766-127.271662l190.908004-159.089321c5.478781 4.101411 29.247114-14.639418 48.137347 12.208043 18.893302 26.844392-16.319687 51.430346-16.319687 51.430346s-148.153248 116.332519-159.089321 127.268592c-22.870894 33.806967 42.753733 81.532945 63.636343 63.636343 9.940396-8.946766 159.089321-159.089321 159.089321-159.089321L510.284939 429.253806l63.635319 0c0 0 0-163.066913 0-190.908004 0-27.836999 26.844392-63.635319 58.663074-63.635319l121.305787 0c56.673767 0 106.393145-33.806967 106.393145-95.450932l0-159.089321c0-37.783535 63.636343-42.756803 63.636343 0 0 33.802874 0 24.856108 0 159.089321C923.917584 213.489694 825.479621 238.345802 764.828262 238.345802z"  horiz-adv-x="1024" />

    
    <glyph glyph-name="wenjianjia" unicode="&#58941;" d="M193.296522 95.2219 111.245526 95.2219c-41.481505 0-75.241868 33.760363-75.241868 75.241868L36.003658 717.55109c0 41.514643 33.760363 75.272125 75.241868 75.272125l711.225333 0c41.543458 0 75.303822-33.757482 75.303822-75.272125l0-136.764627c0-11.313007-9.184974-20.497981-20.559934-20.497981-11.315888 0-20.500862 9.184974-20.500862 20.497981L856.713884 717.55109c0 18.887189-15.32558 34.21565-34.244466 34.21565L111.245526 751.76674c-18.856932 0-34.185394-15.328461-34.185394-34.21565l0-547.088763c0-18.856932 15.328461-34.244466 34.185394-34.244466l82.050996 0c11.37496 0 20.559934-9.184974 20.559934-20.497981C213.856457 104.406874 204.671482 95.2219 193.296522 95.2219zM849.842803 642.343801 83.873583 642.343801c-11.313007 0-20.497981 9.182093-20.497981 20.528237 0 11.343263 9.184974 20.528237 20.497981 20.528237l765.96922 0c11.37496 0 20.559934-9.184974 20.559934-20.528237C870.401297 651.525893 861.216322 642.343801 849.842803 642.343801zM1041.378692-178.369307 330.091405-178.369307c-41.481505 0-75.179915 33.760363-75.179915 75.241868l0 547.150716c0 41.452689 33.69841 75.210171 75.179915 75.210171l711.287287 0c41.484386 0 75.241868-33.757482 75.241868-75.210171l0-547.150716C1116.62056-144.608944 1082.863078-178.369307 1041.378692-178.369307zM330.091405 478.176974c-18.854051 0-34.182512-15.328461-34.182512-34.153696l0-547.150716c0-18.856932 15.328461-34.185394 34.182512-34.185394l711.287287 0c18.856932 0 34.185394 15.328461 34.185394 34.185394l0 547.150716c0 18.825235-15.328461 34.153696-34.185394 34.153696L330.091405 478.176974zM1068.691563 368.811666 302.722343 368.811666c-11.315888 0-20.497981 9.184974-20.497981 20.497981 0 11.315888 9.182093 20.500862 20.497981 20.500862l765.96922 0c11.37496 0 20.557053-9.184974 20.557053-20.500862C1089.248616 377.99664 1080.066524 368.811666 1068.691563 368.811666z"  horiz-adv-x="1153" />

    
    <glyph glyph-name="shizhong" unicode="&#58900;" d="M512.027118 746.613804c-246.323105 0-446.671109-200.348004-446.671109-446.64041 0-246.294452 200.348004-446.588221 446.671109-446.588221 246.26273 0 446.614827 200.292746 446.614827 446.588221C958.642968 546.266823 758.290871 746.613804 512.027118 746.613804L512.027118 746.613804zM512.027118-97.71614c-219.335451 0-397.771399 178.496323-397.771399 397.74684 0 219.278145 178.405249 397.741723 397.771399 397.741723 219.278145 0 397.742746-178.379667 397.742746-397.741723C909.769864 80.720831 731.305263-97.71614 512.027118-97.71614L512.027118-97.71614zM521.736247 591.163359l-48.894593 0 0-339.65477 4.227278 0 286.006919-116.004037 18.376533 45.335535L521.736247 286.116805 521.736247 591.163359zM521.736247 591.163359"  horiz-adv-x="1024" />

    
    <glyph glyph-name="wangzhan" unicode="&#59004;" d="M510.651794 748.034153c-0.121773 0-0.24457 0-0.385786 0-0.051165 0-0.105401 0-0.173962 0-0.174985 0-0.347924-0.034792-0.523933-0.034792C262.795776 747.440635 62.962495 547.237941 62.962495 300.344854c0-246.825548 199.832258-447.060989 446.606641-447.65553 0.176009 0 0.348947-0.034792 0.523933-0.034792 0.068562 0 0.122797 0 0.173962 0 0.141216 0 0.264013 0 0.385786 0 247.210311 0 447.689299 200.481034 447.689299 447.691345C958.342116 547.587911 757.863129 748.034153 510.651794 748.034153zM528.559653 480.12031c47.461965 1.293459 93.647867 7.553023 138.120754 18.396999 13.411451-52.779064 21.718651-113.602338 23.032576-180.26562L528.559653 318.251689 528.559653 480.12031zM528.559653 515.933981 528.559653 709.385924C576.842309 696.025639 625.740996 631.669912 656.922159 532.967936 615.562169 522.99991 572.647777 517.193671 528.559653 515.933981zM492.743936 709.806503 492.743936 515.933981c-44.453445 1.258667-87.717807 7.17133-129.392976 17.314341C394.777717 632.543815 444.146101 697.143089 492.743936 709.806503zM492.743936 480.15408 492.743936 318.251689 330.474179 318.251689c1.311879 66.768683 9.653871 127.660518 23.067368 180.475398C398.361335 487.779757 444.897208 481.413769 492.743936 480.15408zM294.432311 318.251689 99.23256 318.251689c3.952009 92.056626 38.246069 176.417989 93.158726 243.221464 39.872103-21.964244 82.175581-39.940664 126.489856-53.373605C304.417733 450.984736 295.743166 386.594217 294.432311 318.251689zM294.432311 282.436996c1.310855-68.307735 9.985422-132.698255 24.448832-189.81102-44.296879-13.468756-86.617753-31.444153-126.489856-53.40942-54.912657 66.803475-89.205695 151.166885-93.158726 243.221464L294.432311 282.438019zM330.474179 282.436996l162.269757 0 0-161.691589c-47.846728-1.25969-94.399997-7.66047-139.219785-18.643616C340.110653 154.878808 331.786057 215.736874 330.474179 282.436996zM492.743936 84.963459l0-194.081277c-48.63365 12.69616-98.035804 77.366042-129.445164 176.766936C404.991336 77.794176 448.273095 83.704792 492.743936 84.963459zM528.559653-108.697239l0 193.660698c44.104497-1.258667 87.017866-7.099698 128.396275-17.067724C625.791138-30.875826 576.862775-95.33593 528.559653-108.697239zM528.559653 120.745407 528.559653 282.436996l161.152307 0c-1.313925-66.593697-9.620102-127.346363-22.978341-180.090635C622.226962 113.18829 576.040037 119.485717 528.559653 120.745407zM725.75485 282.436996l196.317201 0c-3.949962-92.054579-38.22765-176.383196-93.14133-243.185648-40.199561 22.104437-82.857103 40.222073-127.553071 53.721529C715.803197 150.01708 724.441948 214.269453 725.75485 282.436996zM725.75485 318.251689c-1.311879 68.272943-9.968026 132.559085-24.413016 189.638081 44.663222 13.500479 87.315648 31.583323 127.485533 53.68776 54.963823-66.803475 89.274256-151.199631 93.244684-243.326864L725.75485 318.250666zM804.151361 588.929482c-35.624359-18.955724-73.238025-34.625612-112.515586-46.518476-20.935822 67.36527-50.332339 122.346489-85.079724 158.441569C682.804642 682.558929 750.884181 643.107405 804.151361 588.929482zM413.331281 700.502603c-34.573423-36.024471-63.830771-90.76112-84.692914-157.77642-38.893822 11.857049-76.177983 27.386744-111.485117 46.203298C270.071484 642.757434 337.644485 682.104581 413.331281 700.502603zM217.030453 11.899396c35.341926 18.85237 72.644507 34.380018 111.573121 46.238091 20.862143-67.081815 50.120514-121.889071 84.727707-157.950382C337.592296-81.38008 269.983479-41.998141 217.030453 11.899396zM606.537631-100.129096c34.802644 36.094056 64.198138 91.112114 85.148285 158.581762 39.297005-11.927657 76.92909-27.562752 112.569822-46.588061C750.988558-42.349135 682.855808-81.870244 606.537631-100.129096z"  horiz-adv-x="1024" />

    
    <glyph glyph-name="switch-on" unicode="&#58908;" d="M714.205816 691.848367 309.967122 691.848367c-169.95274 0-307.72557-137.773853-307.72557-307.726593s137.773853-307.72557 307.72557-307.72557l404.238694 0c169.950693 0 307.72557 137.77283 307.72557 307.72557S884.157533 691.848367 714.205816 691.848367zM714.554764 105.501078c-154.22964 0-279.268448 125.030621-279.268448 279.268448 0 154.236803 125.038808 279.268448 279.268448 279.268448 154.239873 0 279.269471-125.032668 279.269471-279.268448C993.824235 230.530676 868.794637 105.501078 714.554764 105.501078z"  horiz-adv-x="1024" />

    
    <glyph glyph-name="switch-off" unicode="&#58909;" d="M714.204793 691.848367 309.966099 691.848367c-169.950693 0-307.72557-137.773853-307.72557-307.726593s137.774877-307.72557 307.72557-307.72557l404.238694 0c169.951717 0 307.72557 137.77283 307.72557 307.72557S884.157533 691.848367 714.204793 691.848367zM302.307675 104.731552c-20.907169 0-41.270962 2.315742-60.866253 6.671956-13.912871 3.486404-27.563776 8.043187-40.891316 13.680581-33.472346 14.157441-63.539128 34.43016-89.36533 60.257385-25.826202 25.825179-46.098921 55.891961-60.257385 89.364307-14.651698 34.641985-22.080901 71.454402-22.080901 109.417015 0 37.962613 7.429203 74.776054 22.080901 109.417015 14.157441 33.472346 34.431184 63.539128 60.257385 89.36533 25.826202 25.826202 55.892985 46.099944 89.36533 60.257385 10.663874 4.510734 21.534456 8.330736 32.580023 11.466146 22.122857 5.637394 45.298695 8.640798 69.176522 8.640798 154.22964 0 279.269471-125.032668 279.269471-279.268448C581.577147 229.76115 456.537316 104.731552 302.307675 104.731552zM912.986115 185.340451c-25.825179-25.826202-55.892985-46.099944-89.36533-60.257385-34.640961-14.651698-71.453379-22.080901-109.415992-22.080901L387.63197 103.002165c9.79304 2.974751 19.455097 6.460132 28.958542 10.479679 34.963303 14.787798 66.360384 35.95591 93.318362 62.912865 26.959002 26.959002 48.127114 58.355059 62.914912 93.317339 15.314801 36.20662 23.079648 74.65735 23.079648 114.286929 0 39.628556-7.764847 78.08031-23.079648 114.284883-14.787798 34.963303-35.956933 66.35936-62.914912 93.318362-26.959002 26.959002-58.356083 48.126091-93.318362 62.913888-9.770528 4.133134-19.710924 7.696286-29.78742 10.725272l327.402725 0c37.962613 0 74.775031-7.429203 109.415992-22.080901 33.472346-14.157441 63.540152-34.431184 89.36533-60.257385 25.826202-25.826202 46.099944-55.892985 60.257385-89.36533 14.651698-34.640961 22.080901-71.454402 22.080901-109.417015 0-37.962613-7.429203-74.776054-22.080901-109.417015C959.08606 241.232412 938.813341 211.16563 912.986115 185.340451z"  horiz-adv-x="1024" />

    
    <glyph glyph-name="wrongicon01" unicode="&#58971;" d="M629.419899 495.699831l78.271746-78.284026-117.413247-117.408131 117.413247-117.413247-78.271746-78.284026-117.419387 117.408131-117.413247-117.408131-78.277886 78.284026 117.413247 117.413247-117.419387 117.408131 78.277886 78.284026 117.419387-117.413247L629.419899 495.699831zM64.698599 300.008698c0-247.047853 200.26634-447.313169 447.301913-447.313169 247.041713 0 447.301913 200.265316 447.301913 447.313169 0 247.035573-200.2602 447.295773-447.301913 447.295773C264.963915 747.304471 64.698599 547.044271 64.698599 300.008698z"  horiz-adv-x="1024" />

    
    <glyph glyph-name="xinzeng" unicode="&#59105;" d="M927.958 440.78l-347.178 0 0 347.178-137.561 0 0-347.178-347.177 0 0-137.559 347.177 0 0-347.178 137.561 0 0 347.178 347.178 0z"  horiz-adv-x="1024" />

    
    <glyph glyph-name="tongjitubiao" unicode="&#59485;" d="M864.680946 600.101803 920.983253 831.696462 689.128675 775.654075 747.880777 716.901972 524.246417 493.25124 429.22425 588.266243 103.0147 261.999388 165.189761 199.807954 165.189761 199.84991 429.22425 463.917144 524.246417 368.901117 810.055838 654.735098ZM175.759491 149.267884l117.236098 0 0-212.947973-117.236098 0 0 212.947973ZM369.933889 255.751081l117.235075 0 0-319.447543-117.235075 0 0 319.447543ZM571.423903 363.725234l117.234051 0 0-427.422719-117.234051 0 0 427.422719ZM767.409552 468.72259l117.27089 0 0-532.419052-117.27089 0 0 532.419052Z"  horiz-adv-x="1024" />

    
    <glyph glyph-name="yulan" unicode="&#58963;" d="M511.355 37.159c-278.113 0-503.88 334.873-503.88 346.225 0 12.593 225.767 347.457 503.88 347.457 279.351 0 508.904-349.361 505.125-347.457C1012.687 386.529 790.705 37.159 511.355 37.159L511.355 37.159 511.355 37.159zM509.449 619.867c-117.935 0-213.148-102.805-213.148-230.808 0-126.777 95.213-230.176 213.148-230.176 118.547 0 214.409 103.393 214.409 230.176C723.859 517.063 627.996 619.867 509.449 619.867L509.449 619.867 509.449 619.867zM508.836 288.151c-56.139 0-101.554 49.175-101.554 109.098 0 59.925 45.416 108.482 101.554 108.482 56.102 0 100.874-48.558 100.874-108.482C609.709 337.318 564.938 288.151 508.836 288.151L508.836 288.151 508.836 288.151zM508.836 288.151"  horiz-adv-x="1024" />

    
    <glyph glyph-name="iconzhuomianruanjianjiemiansheji" unicode="&#58911;" d="M966.4 812.8 57.6 812.8c-32 0-51.2-25.6-51.2-51.2l0-576c0-32 25.6-51.2 51.2-51.2l908.8 0c32 0 51.2 25.6 51.2 51.2l0 576C1017.6 787.2 992 812.8 966.4 812.8zM960 275.2 64 275.2 64 748.8 960 748.8 960 275.2zM684.8 19.2 614.4 19.2l-12.8 192L422.4 211.2l-12.8-192L339.2 19.2c-25.6 0-44.8-32-44.8-57.6l435.2 0C729.6-19.2 710.4 19.2 684.8 19.2zM134.4 684.8m-32 0a0.5 0.5 0 1 0 64 0 0.5 0.5 0 1 0-64 0ZM134.4 595.2m-32 0a0.5 0.5 0 1 0 64 0 0.5 0.5 0 1 0-64 0ZM134.4 512m-32 0a0.5 0.5 0 1 0 64 0 0.5 0.5 0 1 0-64 0ZM83.2 390.4l0-96 857.6 0L940.8 390.4 83.2 390.4zM140.8 320C121.6 320 115.2 332.8 115.2 345.6c0 12.8 12.8 25.6 25.6 25.6 12.8 0 25.6-12.8 25.6-25.6C160 332.8 153.6 320 140.8 320zM230.4 320C217.6 320 204.8 332.8 204.8 345.6c0 12.8 12.8 25.6 25.6 25.6C243.2 371.2 256 358.4 256 345.6 256 332.8 243.2 320 230.4 320zM307.2 320C294.4 320 281.6 332.8 281.6 345.6c0 12.8 12.8 25.6 25.6 25.6 12.8 0 25.6-12.8 25.6-25.6C332.8 332.8 320 320 307.2 320zM384 320C371.2 320 364.8 332.8 364.8 345.6c0 12.8 12.8 25.6 25.6 25.6s25.6-12.8 25.6-25.6C409.6 332.8 403.2 320 384 320zM467.2 320C448 320 441.6 332.8 441.6 345.6c0 12.8 12.8 25.6 25.6 25.6 12.8 0 25.6-12.8 25.6-25.6C486.4 332.8 480 320 467.2 320z"  horiz-adv-x="1024" />

    
    <glyph glyph-name="iconfontbaocun" unicode="&#58984;" d="M1031.955973 880.922355 320.722918 880.922355c-78.259255 0-141.929404-65.135769-141.929404-145.199524l0-691.190883c0-80.063755 63.67015-145.199524 141.929404-145.199524l711.231335 0c78.259255 0 141.929404 65.135769 141.929404 145.199524L1173.883657 735.724551C1173.885378 815.786586 1110.215228 880.922355 1031.955973 880.922355zM408.381403 820.164522l534.64485 0 0-359.861147L408.381403 460.303375 408.381403 820.164522zM1113.125824 44.533668c0-46.560936-36.413415-84.441691-81.171571-84.441691L320.722918-39.908022c-44.758156 0-81.171571 37.880754-81.171571 84.441691L239.551348 735.724551c0 46.560936 36.413415 84.439971 81.171571 84.439971l26.898931 0 0-390.240063c0-16.778933 13.599984-30.378917 30.378917-30.378917l595.404404 0c16.778933 0 30.378917 13.599984 30.378917 30.378917L1003.784087 820.164522l28.170166 0c44.758156 0 81.171571-37.879034 81.171571-84.439971L1113.125824 44.533668zM803.257434 732.473354c-16.778933 0-30.378917-13.599984-30.378917-30.378917l0-170.123654c0-16.778933 13.599984-30.378917 30.378917-30.378917 16.778933 0 30.378917 13.599984 30.378917 30.378917l0 170.123654C833.63635 718.87337 820.036366 732.473354 803.257434 732.473354z"  horiz-adv-x="1346" />

    
    <glyph glyph-name="yonghu" unicode="&#58938;" d="M637.953132 347.721749c71.730695 40.298821 120.348995 116.815519 120.348995 204.542536 0 129.46256-105.705484 234.781234-235.641835 234.781234-129.936351 0-235.628532-105.318674-235.628532-234.781234 0-84.393085 45.041846-158.307516 112.302739-199.683878-152.041812-47.787376-262.605953-189.523471-262.605953-356.600721 0-5.058203 0.560772-9.956769 0.762363-14.97404l52.356438 0c-0.230244 4.986571-0.76134 9.914814-0.76134 14.97404 0 177.279612 144.855132 321.502341 322.909387 321.502341 178.054255 0 322.910411-144.222729 322.910411-321.502341 0-5.058203-0.532119-9.987468-0.775666-14.97404l52.371788 0c0.200568 5.016247 0.760317 9.914814 0.760317 14.97404C887.263268 158.068318 783.009855 295.982364 637.953132 347.721749zM339.389222 552.264285c0 100.588953 82.208327 182.423773 183.27107 182.423773 101.06479 0 183.272094-81.83482 183.272094-182.423773 0-100.589976-82.207303-182.423773-183.272094-182.423773C421.597549 369.840512 339.389222 451.674309 339.389222 552.264285z"  horiz-adv-x="1024" />

    
    <glyph glyph-name="kexielingdao" unicode="&#59723;" d="M511.995395 831.130573c-127.185704 0-230.308363-103.131869-230.308363-230.308363 0-127.193891 103.122659-230.326782 230.308363-230.326782 127.308501 0 230.325759 103.132892 230.325759 230.326782C742.321154 727.997682 639.303896 831.130573 511.995395 831.130573zM511.995395 390.441713c-107.692744 0-195.306174 87.614453-195.306174 195.324594 0 0 75.776847 45.824675 130.209574 130.209574 37.44175-37.547151 65.096601-130.209574 260.421194-130.209574C707.319989 478.046956 619.705536 390.441713 511.995395 390.441713zM511.995395 358.057141 431.035502 277.087015 511.995395-46.769954 592.972685 277.087015ZM742.321154 339.904713 593.415776 339.904713l39.926338-39.917128-90.747817-363.118158 199.726857 0 57.580416 0c31.826869 0 57.574277 25.747407 57.574277 57.582463L857.475847 224.759229C857.474824 288.346453 805.96159 339.904713 742.321154 339.904713zM430.582177 339.904713 281.686009 339.904713c-63.535035 0-115.16288-51.55826-115.16288-115.145483l0-230.30734c0-31.834033 25.756617-57.582463 57.58144-57.582463l57.58144 0 199.779046 0-90.808192 363.118158L430.582177 339.904713z"  horiz-adv-x="1024" />

    
    <glyph glyph-name="bofang" unicode="&#59134;" d="M512.717999 894.451374C230.37665 894.451374 1.493605 665.56833 1.493605 383.2257s228.883045-511.225674 511.224394-511.225674S1023.942393 100.884351 1023.942393 383.2257 795.059349 894.451374 512.717999 894.451374zM512.717999-76.873567c-254.107727 0-460.101827 205.995381-460.101827 460.101827S258.610272 843.330086 512.717999 843.330086s460.101827-205.995381 460.101827-460.101827S766.825726-76.873567 512.717999-76.873567zM744.777647 419.458423c-79.555848 54.132789-223.814815 135.156632-305.958532 185.360262-33.67813 21.23793-61.996223 12.70897-64.717197-24.801049-1.970978-100.467414 0-294.316962 0-396.522421 1.711167-38.079555 35.28179-43.10171 64.418991-27.81255 82.050287 49.710887 223.071218 135.147673 305.536179 185.10941C743.516988 341.119718 806.671482 375.853729 744.777647 419.458423z"  horiz-adv-x="1024" />

    
    <glyph glyph-name="fujian" unicode="&#59053;" d="M320.91394 257.868301l0.12075 0.026606c0.147356 0.193405 0.289596 0.314155 0.38681 0.433882l0.968048 0.991584c0.069585 0.023536 0.166799 0.096191 0.26299 0.216941l330.687538 330.710051c8.700149 8.751315 8.700149 22.892383 0 31.689746-8.773827 8.751315-22.965038 8.751315-31.716352 0L291.134707 291.396929l-1.453095-1.351787c-0.267083-0.267083-0.581238-0.602727-0.843204-0.870834l-3.725858-3.698229c-1.475608-1.452071-2.683109-3.093455-3.651157-4.859681-40.61093-49.845245-37.392632-122.411981 8.584516-168.411641 48.006364-47.863101 124.560924-49.555649 174.457334-3.794419 0.188288 0.193405 0.433882 0.38681 0.700965 0.627287l380.623857 380.602368c36.570917 36.478819 56.756655 85.066421 56.756655 136.722918 0.026606 51.510164-19.940145 99.95348-56.323796 136.285966-75.295893 75.277474-197.877743 75.277474-273.248338 0L383.499347 573.013865 253.207909 442.551534l-58.909691-58.95574c-0.147356-0.169869-0.319272-0.289596-0.436952-0.484024-97.441263-99.787704-96.449679-261.190721 2.130524-359.64608 49.674353-49.674353 115.279536-74.572416 180.956352-74.572416 63.524802 0 127.175471 23.302729 176.364777 70.02996 0.38681 0.239454 0.747014 0.603751 1.088798 0.867764 0.360204 0.340761 0.627287 0.602727 0.991584 0.943488l2.39249 2.342348c0.096191 0.12382 0.14224 0.12382 0.26299 0.24457L888.73734 354.033501c0.051165 0.046049 0.147356 0.239454 0.169869 0.26299 0.581238 0.50756 1.088798 1.064238 1.692548 1.6465 8.916067 8.482185 9.355065 22.600741 0.916882 31.665187-8.55791 8.989745-22.721491 9.400091-31.739888 0.89437-0.940418-0.89437-1.88493-1.812275-2.876514-2.90005L526.456247 55.108365l-0.096191-0.12075c-0.844228-0.603751-1.617847-1.305739-2.341325-2.055822-82.406848-79.864956-215.163431-78.924537-296.315706 2.225691-81.267908 81.22186-82.065064 214.241432-1.834788 296.624744 5.681396 5.681396 375.189078 375.452067 378.859677 379.177925 57.872059 57.820893 152.001903 57.820893 209.823819 0 27.894304-27.894304 43.265386-65.028039 43.265386-104.59622-0.068562-39.669488-15.565511-76.942393-43.675732-104.96154L433.778474 141.068132c-32.105209-29.130458-81.147158-27.894304-111.970164 2.876514-30.797423 30.720675-31.79003 79.939657-2.369977 112.088868C319.997058 256.562563 320.504618 257.218502 320.91394 257.868301L320.91394 257.868301z"  horiz-adv-x="1024" />

    
    <glyph glyph-name="statistics-c" unicode="&#59036;" d="M86.016-41.984h937.984v-86.016h-1024v1024h86.016v-937.984zM319.488 330.752h-143.36v-270.336h143.36v270.336zM544.768 560.128h-143.36v-499.712h143.36v499.712zM770.048 457.728h-143.36v-397.312h143.36v397.312zM995.328 732.16h-143.36v-667.648h143.36v667.648z"  horiz-adv-x="1024" />

    
    <glyph glyph-name="editing" unicode="&#58886;" d="M989.845 502.963c-1.478 13.473-12.889 23.96-26.755 23.96-13.865 0-25.276-10.487-26.752-23.96h-0.173v-467.327c0-42.895-34.894-77.787-77.788-77.787h-691.11c-42.89 0-77.786 34.891-77.786 77.787v696.722c0 42.893 34.896 77.788 77.786 77.788l463.972 0.038c14.528 0.394 26.191 12.265 26.191 26.888s-11.663 26.496-26.191 26.888v0.039h-463.972c-72.587 0-131.639-59.054-131.639-131.639v-696.724c0-72.586 59.053-131.637 131.639-131.637h691.11c72.588 0 131.639 59.052 131.639 131.637v467.326h-0.172zM296.383 220.952l-0.122-0.502c-2.204-9.35-4.103-26.841 7.958-38.894 7.478-7.491 17.050-9.599 25.465-9.599 5.136 0 9.846 0.788 13.387 1.618l147.077 38.835 468.748 468.748c16.388 16.387 25.413 38.174 25.413 61.347 0 23.175-9.025 44.963-25.413 61.349l-32.439 32.439c-33.831 33.827-88.87 33.836-122.703 0.001l-468.792-468.793-38.578-146.551zM378.206 323.259l67.73-67.722-91.081-23.352 23.351 91.074zM410.621 367.009l366.34 366.337 78.983-78.982-366.339-366.339-78.983 78.983zM888.374 798.219l32.441-32.441c12.832-12.832 12.832-33.709 0-46.543l-26.796-26.792-78.978 78.982 26.792 26.794c12.834 12.836 33.715 12.828 46.54 0.001z"  horiz-adv-x="1024" />

    
    <glyph glyph-name="bianji" unicode="&#58888;" d="M789.05606-63.696462 199.328791-63.696462c-45.871747 0-83.071997 37.20025-83.071997 83.071997L116.256794 698.943972c0 38.823214 31.494295 70.317509 70.317509 70.317509L660.896168 769.261481c17.732873 0 32.054043-4.699022 32.054043-22.376637s-14.32117-22.376637-32.054043-22.376637L180.029236 724.508207c-10.461259 0-19.020192-8.558933-19.020192-18.96391l0-690.476881c0-23.103184 6.377244-34.011628 34.347273-34.011628l593.69872 0c51.353598 0 51.353598 26.795273 51.353598 44.472887L840.408635 544.994718c0 17.677615 4.64274 30.432103 22.376637 30.432103 17.677615 0 22.376637-12.754488 22.376637-30.432103l0-531.884886C885.161908-39.920966 842.031599-63.696462 789.05606-63.696462M600.815815 448.888869c-15.160281 0-30.375821 10.796904-33.172517 32.165584-0.839111 6.656607 1.5104 13.482059 6.265704 18.23634L896.573819 821.957657c12.530384 12.530384 32.781614 12.530384 45.311998 0 12.530384-12.530384 12.530384-32.781614 0-45.311998L623.471814 458.286913C617.262392 452.02121 609.039103 448.888869 600.815815 448.888869M468.683449 448.888869 276.470729 448.888869c-17.677615 0-32.054043 4.251837-32.054043 21.928429 0 17.732873 14.376429 22.655999 32.054043 22.655999l192.21272 0c17.677615 0 32.054043-4.923126 32.054043-22.655999C500.737492 453.140707 486.361063 448.888869 468.683449 448.888869M660.896168 256.67615 276.470729 256.67615c-17.677615 0-32.054043 4.64274-32.054043 22.376637 0 17.732873 14.376429 22.376637 32.054043 22.376637L660.896168 301.429423c17.732873 0 30.655184-4.978385 30.655184-22.712281C691.551352 260.984269 678.629042 256.67615 660.896168 256.67615"  horiz-adv-x="1024" />

    
    <glyph glyph-name="biaoti" unicode="&#58981;" d="M426.169244 128.333766 426.666667 128.333766 426.666667 722.440678 276.83799 722.440678C179.932901 722.440678 98.762316 649.064589 86.840214 554.221645L0 554.221645 85.895834 896 938.104166 896 1024 554.221645 937.164435 554.221645C925.311456 648.816998 844.763456 722.440678 747.16201 722.440678L597.333331 722.440678 597.333331 128.333766 597.830758 128.333766C597.501152 123.927475 597.333331 119.475194 597.333331 114.983053 597.333331 19.128883 673.743405-58.576269 768-58.576269L768-128 554.666669-128 469.333333-128 256-128 256-58.576269C350.256597-58.576269 426.666667 19.128883 426.666667 114.983053 426.666667 119.475194 426.49885 123.927475 426.169244 128.333766Z"  horiz-adv-x="1024" />

    
    <glyph glyph-name="duoxuanxuanzhong" unicode="&#59797;" d="M759.765333 756.138667 205.141333 756.138667c-66.901333 0-121.130667-54.229333-121.130667-121.130667L84.010667 78.506667c0-66.901333 54.229333-121.130667 121.130667-121.130667l554.624 0c66.901333 0 121.130667 54.229333 121.130667 121.130667L880.896 635.008C880.896 701.909333 826.666667 756.138667 759.765333 756.138667zM771.669333 527.061333c-5.12-14.421333-399.146667-413.013333-417.194667-413.269333-18.048-0.298667-188.586667 172.202667-196.693333 194.816-8.064 22.613333 25.472 47.018667 43.818667 43.562667 20.437333-8.021333 137.856-151.253333 152.874667-151.424 15.018667-0.170667 356.992 362.88 373.290667 369.792C754.474667 577.536 776.746667 541.482667 771.669333 527.061333z"  horiz-adv-x="1024" />

    
    <glyph glyph-name="fuwuqi" unicode="&#58912;" d="M806.272 42.88 221.76 42.88c-120.832 0-219.136 99.136-219.136 220.992 0 121.856 98.24 220.928 219.136 220.928 8.128 0 16.192-0.448 24.384-1.408L246.144 484.8c0 148.992 120.128 270.144 267.84 270.144 147.776 0 267.904-121.152 267.904-270.144l0-1.408c8.128 0.96 16.192 1.408 24.32 1.408 120.896 0 219.136-99.072 219.136-220.928 0-37.504-9.536-74.752-27.712-107.456-6.592-11.84-21.376-16.064-33.088-9.536-11.712 6.656-16 21.632-9.344 33.472 14.016 25.472 21.568 54.336 21.568 83.52 0 109.44-103.36 196.224-215.104 165.696-7.872-2.176-16.32-0.192-22.4 5.184-6.144 5.44-9.152 13.568-8.128 21.632 1.408 10.816 2.112 19.84 2.112 28.416 0 121.856-98.368 221.056-219.2 221.056-120.832 0-219.136-99.2-219.136-221.056 0-8.576 0.576-17.6 1.984-28.416 1.024-8.064-1.984-16.192-8.128-21.632C282.688 429.44 274.24 427.392 266.368 429.632 154.752 459.968 51.264 373.376 51.264 263.872c0-94.784 76.544-171.904 170.496-171.904l584.448 0c13.44 0 24.384-10.944 24.384-24.512C830.656 53.888 819.712 42.88 806.272 42.88L806.272 42.88 806.272 42.88zM806.272 42.88"  horiz-adv-x="1026" />

    
    <glyph glyph-name="icxiangyousuojin24px" unicode="&#59229;" d="M128 0l768 0 0 85.333333L128 85.333333 128 0zM128 554.666667l0-341.333333 170.666667 170.666667L128 554.666667zM469.333333 170.666667l426.666667 0 0 85.333333L469.333333 256 469.333333 170.666667zM128 768l0-85.333333 768 0L896 768 128 768zM469.333333 512l426.666667 0L896 597.333333 469.333333 597.333333 469.333333 512zM469.333333 341.333333l426.666667 0 0 85.333333L469.333333 426.666667 469.333333 341.333333z"  horiz-adv-x="1024" />

    
    <glyph glyph-name="danxuan" unicode="&#58893;" d="M512 830.016611c-245.919634 0-446.016611-200.095256-446.016611-446.016611 0-245.952318 200.064292-446.016611 446.016611-446.016611S958.016611 138.047682 958.016611 384C958.016611 629.919634 757.952318 830.016611 512 830.016611zM512 1.983389c-210.655557 0-382.016611 171.392017-382.016611 382.016611 0 210.655557 171.359333 382.016611 382.016611 382.016611 210.624593 0 382.016611-171.359333 382.016611-382.016611C894.016611 173.375407 722.624593 1.983389 512 1.983389zM512 543.99914c-88.223841 0-160.00086-71.775299-160.00086-159.99914s71.775299-160.00086 160.00086-160.00086 160.00086 71.775299 160.00086 160.00086S600.223841 543.99914 512 543.99914z"  horiz-adv-x="1024" />

    
    <glyph glyph-name="wenjian" unicode="&#58992;" d="M923.439-99.684c-268.543 0-536.398 0-804.619 0 0 314.143 0 628.048 0 942.685 2.018 0 3.887 0 5.755 0 197.315 0 394.654 0 591.97-0.13 2.641 0 6.012-1.035 7.817-2.823 65.235-65.23 130.277-130.631 195.469-195.926 2.556-2.565 3.693-5.066 3.693-8.752-0.086-243.244-0.086-486.508-0.086-729.773 0-1.552 0-3.147 0-5.281zM185.494-32.535c2.813 0 4.896 0 6.958 0 219.089 0 438.202 0 657.291 0.021 6.721 0 6.721 0 6.721 6.985 0 219.769-0.021 439.557 0.065 659.326 0 4.225-1.225 7.221-4.187 10.196-42.323 42.315-84.561 84.717-126.691 127.227-3.114 3.125-6.121 4.441-10.523 4.441-174.126-0.13-348.251-0.108-522.375-0.108-7.236 0-7.258 0-7.258-7.027 0-264.756 0-529.513 0-794.247 0-2.069 0-4.14 0-6.812zM252.876 371.798c0 22.506 0 44.493 0 66.761 156.346 0 312.476 0 469.014 0 0-22.224 0-44.32 0-66.761-156.367 0-312.455 0-469.014 0zM721.763 303.853c0.215-1.077 0.494-1.918 0.494-2.737 0.044-20.134 0-40.204 0.086-60.315 0-3.018-1.225-4.161-4.080-3.966-1.396 0.108-2.813 0.021-4.209 0.021-151.234 0-302.47 0-453.683 0-2.405 0-4.811 0-7.473 0 0 22.677 0 44.622 0 66.976 156.302 0.021 312.519 0.021 468.865 0.021zM252.833 135.001c0 22.785 0 11.727 0 34.102 1.997 0.108 3.843 0.279 5.69 0.279 152.524 0.021 305.004 0 457.506 0.13 5.153 0 6.506-1.422 6.42-6.489-0.301-18.173-0.301-3.449 0-21.621 0.086-5.066-1.375-6.51-6.485-6.51-109.813 0.13-219.627 0.108-329.419 0.108-42.516 0-85.055 0-127.551 0-1.911 0-3.801 0-6.162 0zM252.962 573.74c0 22.548 0 44.537 0 66.826 89.285 0 178.291 0 267.662 0 0-22.354 0-44.449 0-66.826-89.328 0-178.313 0-267.662 0z"  horiz-adv-x="1024" />

    
    <glyph glyph-name="zuixiaohua-copy" unicode="&#58880;" d="M574.475 446.322v320.417l34.946-0.078v-260.615l261.26 261.26 24.629-24.629-262.024-262.023h261.523l0.081-34.332h-320.416zM154.221 1.641l261.26 261.26v-260.616l34.946-0.077-0 320.416h-320.417l0.081-34.332h261.524l-262.024-262.024 24.629-24.628z"  horiz-adv-x="1024" />

    
    <glyph glyph-name="zanting" unicode="&#59155;" d="M410.393 586.513c-21.593 0-39.156-17.565-39.156-39.156l0-309.72c0-21.592 17.563-39.156 39.156-39.156 21.591 0 39.155 17.564 39.155 39.156l0 309.72C449.548 568.947 431.982 586.513 410.393 586.513zM945.896 572.131c-23.246 54.956-56.522 104.31-98.903 146.691-42.382 42.381-91.735 75.657-146.691 98.903-56.903 24.07-117.341 36.274-179.635 36.274-62.29 0-122.728-12.204-179.629-36.274-54.956-23.246-104.31-56.522-146.692-98.903-42.382-42.382-75.657-91.736-98.905-146.691C71.37 515.228 59.165 454.79 59.165 392.496c0-62.293 12.204-122.73 36.273-179.635 23.246-54.955 56.521-104.31 98.903-146.691 42.382-42.381 91.734-75.656 146.69-98.902 56.903-24.069 117.341-36.272 179.635-36.272s122.731 12.203 179.636 36.272c54.955 23.246 104.311 56.521 146.69 98.902 42.381 42.383 75.657 91.736 98.903 146.691 24.068 56.903 36.272 117.342 36.272 179.635C982.169 454.79 969.965 515.228 945.896 572.131zM675.302 26.443c-48.971-20.713-100.998-31.216-154.636-31.216-53.635 0-105.659 10.503-154.63 31.216-47.305 20.008-89.791 48.653-126.279 85.143-36.487 36.489-65.135 78.975-85.144 126.279-20.713 48.971-31.217 100.996-31.217 154.631s10.504 105.66 31.217 154.63c20.009 47.305 48.654 89.792 85.144 126.28 36.489 36.488 78.976 65.135 126.279 85.143 48.971 20.713 100.995 31.215 154.63 31.215s105.66-10.502 154.63-31.215c47.305-20.008 89.792-48.655 126.28-85.143 36.488-36.488 65.135-78.975 85.144-126.28 20.713-48.97 31.216-100.995 31.216-154.63s-10.502-105.66-31.215-154.631c-20.008-47.306-48.652-89.791-85.14-126.279S722.605 46.451 675.302 26.443zM630.955 586.513c-21.591 0-39.156-17.565-39.156-39.156l0-309.72c0-21.592 17.565-39.156 39.156-39.156s39.156 17.564 39.156 39.156l0 309.72C670.111 568.947 652.546 586.513 630.955 586.513z"  horiz-adv-x="1024" />

    
    <glyph glyph-name="jiantou-copy" unicode="&#58882;" d="M376.237 362.982c-12.499-12.499-32.755-12.499-45.254 0v0c-12.499 12.499-12.499 32.755 0 45.254l316.781 316.781c12.499 12.499 32.755 12.499 45.254 0v0c12.499-12.499 12.499-32.755 0-45.254l-316.781-316.781zM693.018 88.237c12.499-12.499 12.499-32.755 0-45.254v0c-12.499-12.499-32.755-12.499-45.254 0l-316.781 316.781c-12.499 12.499-12.499 32.755 0 45.254v0c12.499 12.499 32.755 12.499 45.254 0l316.781-316.781z"  horiz-adv-x="1024" />

    
    <glyph glyph-name="wenjianjia1" unicode="&#58922;" d="M64.000512 60.966415l0 646.984051c0 37.456002 30.221242 68.39765 68.001631 68.39765l284.929832 0c37.77118 0 68.532726-30.939601 68.532726-68.39765l0-38.534564-18.886101 0c-11.395515 0-18.707023-9.807347-18.708047-16.37389 0-7.045449 0.062422 53.845241 0.062422 53.845241 0 18.191278-13.732742 32.002814-31.002023 32.002814l-284.928808 0c-17.270304 0-31.302874-14.112388-31.302874-30.939601L100.699268 267.036335 64.000512 60.966415zM857.813359 526.665995l0 74.36249c0 17.371611-14.03257 30.939601-31.293664 30.939601L466.578599 631.968086c-10.259647 0-18.708047 9.550498-18.708047 19.859264 0 11.288068 11.512172 18.035736 18.708047 17.588552l360.485494 0c37.229852 0 67.989351-30.396227 67.989351-68.387417l0-74.382956C895.053444 526.645529 865.633449 526.665995 857.813359 526.665995M821.654907-10.689435 130.379182-10.689435c-36.698757 0-75.457425 16.747396-66.378671 72.190015 16.742279 102.241388 71.232202 398.947404 71.232202 398.947404 1.082656 36.910581 30.760523 66.218012 66.378671 66.218012l691.819099 0c36.700803 0 66.377647-30.396227 66.377647-68.38844 0-1.088796 0-2.168382-0.542351-3.259224l-71.232202-398.944334c-1.072423-36.903418-30.220218-66.764456-66.378671-66.764456L821.654907-10.689435zM101.240596 56.619419c0.543375-16.82619 13.491242-29.851829 29.137562-29.851829l691.276748 0c16.197881 0 24.497901 14.260767 29.147795 30.940624 0.288572 1.039677 0.542351 2.714826 0.542351 3.794412l71.232202 398.401983c-0.542351 16.281792-13.492265 29.848759-29.148819 29.848759L201.609338 489.753368c-16.187648 0-29.135516-14.111364-29.135516-31.475812l0-3.259224L101.240596 56.619419 101.240596 56.619419z"  horiz-adv-x="1024" />

    
    <glyph glyph-name="tishi" unicode="&#58913;" d="M898.034589 536.309918c-22.019503 50.997488-52.060703 95.362928-89.958848 133.26312-37.900192 37.899168-82.266655 67.858504-133.017526 89.878007-50.751894 22.101367-105.104803 33.070186-163.058726 33.070186s-112.305809-11.050684-163.057703-33.070186-95.117334-51.978838-133.017526-89.878007c-37.899168-37.900192-67.941392-82.347496-89.959871-133.26312C103.944885 485.313453 92.894202 430.879704 92.894202 373.006622c0-57.872059 11.050684-112.143103 33.070186-162.894997 22.019503-50.751894 52.060703-95.03547 89.959871-132.935662 37.982056-37.898145 82.265632-67.858504 133.017526-89.876983s105.10378-33.069163 163.057703-33.069163 112.306832 11.050684 163.058726 33.069163 95.117334 51.978838 133.017526 89.876983c37.898145 37.900192 67.940368 82.184791 89.958848 132.935662 22.019503 50.67003 33.069163 105.022938 33.069163 162.894997C931.103752 430.879704 920.054091 485.313453 898.034589 536.309918L898.034589 536.309918 898.034589 536.309918zM511.999488 102.716662c-26.193569 0-47.476291 21.201881-47.476291 47.393403 0 26.194592 21.282722 47.39545 47.476291 47.39545 26.195615 0 47.477314-21.201881 47.477314-47.39545C559.475779 123.918543 538.19408 102.716662 511.999488 102.716662L511.999488 102.716662 511.999488 102.716662zM559.475779 299.745061c0-26.194592-21.201881-47.393403-47.477314-47.393403s-47.476291 21.199835-47.476291 47.393403L464.522174 596.720799c0 26.193569 21.282722 47.394427 47.476291 47.394427 26.195615 0 47.477314-21.200858 47.477314-47.394427L559.475779 299.745061 559.475779 299.745061 559.475779 299.745061z"  horiz-adv-x="1024" />

    
    <glyph glyph-name="kongjianliebiaoshu" unicode="&#58901;" d="M0 881.408 420.288 881.408 420.288 631.104 0 631.104 0 881.408ZM1024 385.472 1024 512.128 420.288 512.128 420.288 467.392 179.328 467.392 179.328 631.104 142.08 631.104 142.08-68.928 179.328-68.928 179.328-68.672 420.288-68.672 420.288-113.408 1024-113.408 1024 13.248 420.288 13.248 420.288-31.424 179.328-31.424 179.328 182.912 420.288 182.912 420.288 138.176 1024 138.176 1024 264.896 420.288 264.896 420.288 220.16 179.328 220.16 179.328 430.144 420.288 430.144 420.288 385.472 1024 385.472Z"  horiz-adv-x="1024" />

    
    <glyph glyph-name="icon-copy" unicode="&#58881;" d="M394.22 560.671v-117.779h117.779l0 117.779h-117.779zM511.999 442.891v-117.78h117.78v117.78h-117.78zM394.22 207.326h117.779l0 117.785h-117.779v-117.785z"  horiz-adv-x="1024" />

    
    <glyph glyph-name="weibiaoti5" unicode="&#58914;" d="M664.704 92.056c20.364-30.956 60.692-92.44 80.636-123.4-154.748-46.416-317.64-46.832-471.984 1.236 22.388 29.308 66.792 87.128 89.18 116.464-54.984-28.516-109.148-57.828-163.292-87.156 172.26-153.112 434.516-124.62 625.508-22.396C772.22 16.296 718.472 54.18 664.704 92.056zM511.236-19.312c127.9 159.492 251.068 332.428 302.284 533.368 43.232 180.216-117.34 366.952-300.096 361.504-183.852 7.26-346.232-180.216-303-361.504C261.644 313.516 384.808 140.932 511.236-19.312zM452.016 679.732c86.46 51.94 206.72-33.068 186.38-131.876-10.9-94.472-137.704-143.884-208.172-78.504C360.468 522.048 373.912 641.576 452.016 679.732z"  horiz-adv-x="1024" />

    
    <glyph glyph-name="duoxingwenben" unicode="&#59361;" d="M64.713884 245.59579l892.684232 0 0-55.053873-892.684232 0 0 55.053873ZM511.057535 658.512121l446.340581 0 0-55.056943-446.340581 0 0 55.056943ZM189.225689 411.632337l188.95349 0 46.288233-114.748441 64.741513 0L316.369438 716.095607l-62.694901 0L80.833003 296.883897l64.74356 0L189.225689 411.632337zM275.649014 633.28046c2.731204 6.856152 5.172813 16.597003 7.319709 29.229718l1.467421 0c2.535753-13.895475 4.880147-23.636327 7.030114-29.229718l68.549236-174.288488L207.68204 458.991971 275.649014 633.28046zM511.057535 520.871297l446.340581 0 0-55.053873-446.340581 0 0 55.053873ZM64.713884 107.95906l892.684232 0 0-55.054897-892.684232 0 0 55.054897ZM511.057535 383.233544l446.340581 0 0-55.054897-446.340581 0 0 55.054897Z"  horiz-adv-x="1024" />

    
    <glyph glyph-name="yanse" unicode="&#58889;" d="M953.87 518.413c-3.615 3.69-8.051 5.59-13.184 5.648-12.528 0.141-26.537-10.954-36.075-20.277L563.331 172.25c-12.513-12.241-58.579-87.06-60.533-90.24l-7.461-12.133 12.15 7.435c3.221 1.97 79.048 48.427 91.535 60.636l341.28 331.534c15.168 14.832 26.7 35.475 13.567 48.931zM740.87 415.298c0-27.64-22.433-50.07-50.07-50.07-27.643 0-50.075 22.43-50.075 50.07s22.432 50.072 50.075 50.072c27.637 0 50.07-22.433 50.07-50.072zM215.127 240.057c-27.64 0-50.07 22.426-50.07 50.066 0 27.64 22.43 50.073 50.07 50.073 27.639 0 50.071-22.433 50.071-50.073s-22.432-50.066-50.07-50.066zM290.234 415.298c0 27.64 22.433 50.072 50.069 50.072 27.64 0 50.072-22.433 50.072-50.072s-22.431-50.07-50.072-50.07c-27.637 0-50.07 22.407-50.07 50.07zM465.481 465.37c0 27.639 22.43 50.069 50.07 50.069s50.073-22.43 50.073-50.069c0-27.64-22.433-50.072-50.074-50.072-27.64 0-50.069 22.408-50.069 50.072zM852.743 295.563C829.73 146.435 693.84-4.703 500.416-4.703c-36.82 0-76.081 7.283-107.714 19.98-33.644 13.506-48.903 29.385-51.963 39.737-1.596 5.403-3.097 11.309-4.686 17.56-4.655 18.321-9.932 39.087-20.273 56.32-18.394 30.65-44.862 37.084-63.828 37.084-7.175 0-14.815-0.914-22.7-2.714-12.88-2.94-25.39-4.43-37.182-4.43-25.15 0-67.536 6.674-68.839 51.364-6.597 228.189 180.929 352.126 369.696 373.728 13.351 1.526 27.633 2.299 42.449 2.299 53.181 0 111.664-10.011 152.628-26.127 9.257-3.642 14.39-6.023 39.246-18.204 25.68-12.585 46.398-30.465 62.965-47.694l30.19 53.133c-18.046 17.03-40.377 34.443-67.175 47.576-24.917 12.21-31.928 15.531-43.613 20.127-47.39 18.645-114.156 30.226-174.241 30.226-17.045 0-33.58-0.901-49.155-2.68-115.638-13.234-220.925-59.122-296.463-129.215-85.6-79.428-129.01-184.853-125.54-304.883 1.006-34.508 15.134-63.085 40.855-82.646 22.404-17.037 52.487-26.042 86.997-26.042 16.204 0 33.133 1.987 50.322 5.91 3.586 0.818 6.802 1.234 9.559 1.234 11.481 0 17.01-10.055 26.881-48.906 1.656-6.516 3.369-13.256 5.287-19.752 9.445-31.945 39.385-58.847 86.59-77.795 38.36-15.398 85.636-24.23 129.706-24.23 54.162 0 106.59 10.147 155.828 30.156 46.291 18.814 88.597 45.814 125.742 80.252 35.782 33.176 65.34 71.869 87.851 115.007 22.55 43.21 36.927 88.763 42.738 135.416 0.262 2.12 0.508 4.326 0.732 6.554l0.149 1.471v0.059c0.222 2.338 0.405 4.7 0.572 7.072l-61.284-16.681z"  horiz-adv-x="1024" />

    
    <glyph glyph-name="jinzhi" unicode="&#58917;" d="M512 832c-247.424 0-448-200.576-448-448s200.576-448 448-448 448 200.576 448 448-200.576 448-448 448z m0-768c-176.73216 0-320 143.26784-320 320S335.26784 704 512 704s320-143.26784 320-320-143.26784-320-320-320zM249.52832 31.01696l-90.51136 90.51136L774.47168 736.9728l90.50624-90.50624z"  horiz-adv-x="1024" />

    
    <glyph glyph-name="510tongji_guanxitu" unicode="&#58953;" d="M960 384c-32 0-57.6-25.6-64-57.6l-70.4-6.4c-12.8 38.4-51.2 64-89.6 64-25.6 0-51.2-12.8-70.4-32L512 422.4c0 83.2-70.4 153.6-160 153.6-12.8 0-25.6 0-38.4-6.4l-38.4 83.2C300.8 672 320 704 320 736c0 12.8 0 19.2-6.4 32l140.8 44.8c6.4-25.6 32-44.8 57.6-44.8 38.4 0 64 25.6 64 64S550.4 896 512 896c-25.6 0-51.2-19.2-57.6-44.8L288 806.4C275.2 819.2 249.6 832 224 832c-51.2 0-96-44.8-96-96s44.8-96 96-96h6.4l38.4-89.6C224 524.8 192 473.6 192 416c0-70.4 51.2-134.4 115.2-153.6L288 192c-32 0-57.6-12.8-70.4-38.4L128 192c0 32-32 64-64 64-38.4 0-64-25.6-64-64s25.6-64 64-64c19.2 0 38.4 6.4 44.8 25.6l83.2-38.4V96c0-19.2 6.4-32 12.8-44.8L160-6.4c-12.8 6.4-19.2 6.4-32 6.4-38.4 0-64-25.6-64-64s25.6-64 64-64 64 25.6 64 64c0 6.4 0 12.8-6.4 25.6l44.8 57.6c19.2-12.8 38.4-19.2 57.6-19.2 19.2 0 38.4 6.4 51.2 12.8l51.2-51.2c-6.4-6.4-6.4-12.8-6.4-25.6 0-38.4 25.6-64 64-64s64 25.6 64 64-25.6 64-64 64c-6.4 0-19.2 0-25.6-6.4l-51.2 57.6C377.6 64 384 76.8 384 96c0 38.4-19.2 70.4-51.2 83.2L352 256c70.4 0 134.4 51.2 153.6 115.2l140.8-57.6c-6.4-6.4-6.4-19.2-6.4-25.6 0-51.2 44.8-96 96-96h19.2l32-83.2C774.4 96 768 83.2 768 64c0-38.4 25.6-64 64-64s64 25.6 64 64-25.6 64-64 64l-32 83.2c19.2 12.8 32 32 32 57.6l76.8 12.8c12.8-12.8 32-25.6 51.2-25.6 38.4 0 64 25.6 64 64s-25.6 64-64 64z"  horiz-adv-x="1024" />

    
    <glyph glyph-name="506tongji_leidatu" unicode="&#58957;" d="M511 774c-215.4 0-390-174.6-390-390s174.6-390 390-390 390 174.6 390 390-174.6 390-390 390z m63.1-381.8c-1.2 10.4-4.9 20.1-10.5 28.3l67 57.1L794.1 332l-220 60.2z m-34.8 49.7c-3.7 1.9-7.6 3.4-11.7 4.5V631.7l84.3-128-72.6-61.8z m-43.7 213.8v-208.8c-11.3-2.7-21.4-8.3-29.4-16.1L276.9 556.1l218.7 99.6z m-46.2-252.1c-1.2-3.9-2.1-8-2.5-12.3l-187.7-51.4 11.4 182 178.8-118.3z m2.4-44.1c3.5-8.1 8.7-15.4 15-21.4L397.9 128 259.2 306.7l192.6 52.8z m43.6-37c4.9-1.2 10-1.8 15.2-1.8 4.1 0 8.1 0.4 12 1.1l77.9-113.1-167.4-76 62.3 189.8z m56.5 13.3c7.7 6.5 13.9 14.9 17.9 24.4l272.9-74.7-213.4-61.9-77.4 112.2zM860 316L655.2 498.6l130.4 111.2c50.5-61.4 80.9-140 80.9-225.8 0-23.2-2.2-46-6.5-68z m-95.8 317.5L636.4 524.6 527.6 689.9v49.2c92.5-4.2 175.7-43.8 236.6-105.6zM495.6 739.2v-48.3L245.5 577l-22.8 15c61.8 85.5 160.6 142.4 272.9 147.2zM205.1 565.3l34.7-23L226.6 331l-64.1-17.6c-4.6 22.8-7 46.4-7 70.6 0 66.2 18.1 128.2 49.6 181.3z m-34.9-282.9l55.5 15.2 160.1-206.3-11.7-35.6c-97.6 40.9-173.3 124-203.9 226.7z m234.1-237.6l15.3 46.7L619 182l72.1-104.6c-52.8-31.1-114.4-49-180.1-49-37.2 0.1-73 5.8-106.7 16.4zM718 94.9l-69.5 100.9L841 251.7c-25.4-63.3-68.4-117.6-123-156.8z"  horiz-adv-x="1024" />

    
    <glyph glyph-name="504tongji_ditu" unicode="&#58958;" d="M828.823 48.163h63.619v64.263h-63.619v-64.263z m-318.082-64.254h127.23v-64.268h-127.23v64.268z m497.865 758.217L884.997 848.3c-9.098 7.766-21.691 9.837-32.765 5.203l-95.677-39.911-77.1-48.831c-10.186-6.556-15.85-18.329-14.575-30.402l9.609-94.608-89.001-61.763-104.905-12.524-83.851 46.016-52.098 102.629c-7.891 15.553-26.654 21.852-42.239 14.204l-113.053-55.718c-10.939-5.398-17.875-16.587-17.875-28.87v-42.147l-37.728-37.149H90.861a31.59 31.59 0 0 1-22.074-9.001L11.53 499.712c-12.974-12.658-12.974-33.612 0-46.27l50.198-48.849 28.818-137.906c1.524-7.276 5.474-13.829 11.262-18.449l104.391-84.514c5.661-4.56 12.665-7.063 19.914-7.063h115.024v-69.921c0-17.743 14.246-32.14 31.802-32.14h128.062l57.959-39.851c10.052-6.931 23.09-7.439 33.653-1.349l78.75 45.443 108.661 41.321c5.788 2.189 10.746 6.103 14.444 11.113l68.384 94.862c3.947 5.534 6.109 12.148 6.109 18.899v93.573a32.369 32.369 0 0 1-9.605 23.007l-39.95 39.204 50.571 33.67c4.708 3.091 8.463 7.394 11.01 12.465l35.498 71.541 89.765 63.11c8.522 6.029 13.615 15.852 13.615 26.353V717.648a32.225 32.225 0 0 1-11.262 24.475z m-52.363-137.321l-82.762-58.314c-4.319-3.075-7.884-7.185-10.238-11.954l-35.249-71.06-76.719-50.845c-16.992-11.306-19.281-35.531-4.709-49.867l58.716-57.712v-69.532l-56.685-78.682-104.261-40.091-65.907-37.659-49.687 34.18c-5.28 3.675-11.513 5.593-17.939 5.593H404.689v69.923c0 17.743-14.249 32.14-31.81 32.14H237.253l-86.841 70.252-28.431 136.362c-1.342 6.315-4.454 12.09-9.103 16.528l-33.395 32.577 29.198 23.591h38.107a31.65 31.65 0 0 1 22.209 9.12l56.549 55.716c6.045 5.985 9.545 14.266 9.545 22.949l-5.284 10.079 72.521 58.554 42.309-83.347a32.256 32.256 0 0 1 13.105-13.557l101.405-55.733a32.2 32.2 0 0 1 18.961-3.583l122.647 14.695c5.09 0.646 9.989 2.462 14.249 5.414l111.073 76.985c9.613 6.691 14.826 18.058 13.617 29.759l-9.539 93.766 55.601 35.666 72.778 29.952 97.711-83.93v-97.936h-0.001z m0 0z"  horiz-adv-x="1024" />

    
    <glyph glyph-name="wenhao" unicode="&#59736;" d="M511.772672 836.18816c-251.664384 0-455.68-204.014592-455.68-455.68 0-251.665408 204.015616-455.68 455.68-455.68 251.665408 0 455.68 204.014592 455.68 455.68C967.452672 632.173568 763.43808 836.18816 511.772672 836.18816zM508.056576 109.391872c-18.097152 0-32.768 14.670848-32.768 32.768 0 18.097152 14.670848 32.768 32.768 32.768 18.097152 0 32.768-14.670848 32.768-32.768C540.824576 124.06272 526.153728 109.391872 508.056576 109.391872zM658.07872 438.013952c-10.41408-18.74432-30.779392-41.539584-61.09184-68.380672-20.366336-18.050048-33.670144-31.36-39.917568-39.918592-6.248448-8.562688-10.88-18.39616-13.88544-29.503488-3.01056-11.108352-4.74624-29.157376-5.206016-54.150144l-0.029696 0c0.002048-0.149504 0.011264-0.297984 0.011264-0.448512 0-16.610304-13.464576-30.07488-30.07488-30.07488-16.60928 0-30.07488 13.464576-30.07488 30.07488 0 0.677888-0.2304 15.296512-0.2304 19.191808 0 24.526848 3.47136 45.700096 10.413056 63.521792 5.087232 13.418496 13.304832 26.955776 24.645632 40.612864 8.33024 9.947136 23.31136 24.470528 44.951552 43.563008 21.635072 19.091456 35.692544 34.304 42.17344 45.6448 6.475776 11.336704 9.718784 23.718912 9.718784 37.141504 0 24.297472-9.490432 45.6448-28.463104 64.041984-18.976768 18.39616-42.233856 27.594752-69.769216 27.594752-26.61376 0-48.82944-8.33024-66.644992-24.99072-17.589248-16.444416-29.187072-42.0352-34.82624-76.736512-1.165312-16.822272-15.171584-30.109696-32.289792-30.109696-17.882112 0-32.377856 14.495744-32.377856 32.376832 0 1.355776 0.093184 2.688 0.254976 4.000768l-0.03584 0.004096c5.781504 47.435776 22.9632 83.767296 51.546112 108.993536 28.576768 25.219072 66.352128 37.834752 113.3312 37.834752 49.75104 0 89.43616-13.536256 119.06048-40.61184 29.618176-27.07456 44.429312-59.82208 44.429312-98.233344C673.698816 477.237248 668.491776 456.757248 658.07872 438.013952z"  horiz-adv-x="1024" />

    
    <glyph glyph-name="shangchuan" unicode="&#58985;" d="M731.62752 604.269568c-39.378944 105.880576-126.004224 168.87808-249.37472 168.87808-160.123904 1.746944-276.5056-121.622528-284.381184-275.627008-39.370752-13.126656-70.874112-37.622784-96.248832-73.498624s-37.622784-76.12416-37.622784-120.74496c0-55.131136 18.376704-102.376448 56.000512-142.624768 37.622784-40.257536 81.375232-60.381184 133.00224-60.381184h80.49664c16.62976 0 28.000256 13.126656 28.000256 28.000256 0 15.752192-11.370496 28.000256-28.000256 28.000256h-80.49664c-35.87584 0-67.3792 14.882816-94.500864 43.751424-26.252288 28.877824-39.378944 63.876096-39.378944 103.25504 0 34.998272 10.50112 66.501632 32.380928 94.500864 21.871616 28.000256 48.123904 44.6208 78.749696 49.871872l25.37472 4.37248-1.75616 26.253312h-0.869376c0 136.496128 90.99776 238.8736 229.251072 238.8736 104.124416 0 171.4944-49.002496 202.120192-147.87584l6.12864-19.24608 20.123648-0.877568c52.496384-0.877568 97.995776-19.24608 136.497152-56.87808 39.378944-37.622784 58.625024-82.243584 58.625024-133.871616 2.625536-95.379456-65.62304-203.875328-159.246336-202.128384h-63.876096c-35.87584 0-35.87584-56.000512 0-56.000512h63.876096c140.000256 5.251072 213.49888 136.505344 213.49888 258.128896 0 63.876096-21.871616 118.998016-66.501632 165.374976-43.752448 46.373888-97.995776 73.495552-161.871872 80.493568z m-198.62528-223.121408v0.877568l-6.998016 6.998016c-7.875584 7.875584-21.00224 7.875584-28.877824 0l-6.998016-6.998016v-0.877568L388.620288 269.14816c-7.867392-7.875584-7.867392-20.123648 0-29.7472l7.006208-4.381696c7.875584-7.866368 19.24608-5.241856 28.869632 2.625536l59.503616 66.501632v-281.747456c0-36.754432 56.000512-36.754432 56.000512 0V304.145408l61.25056-68.248576c7.875584-7.875584 20.123648-10.50112 28.000256-2.625536l6.998016 4.37248c7.875584 9.631744 7.875584 21.880832 0 29.756416L533.00224 381.14816z"  horiz-adv-x="1024" />

    
    <glyph glyph-name="danhangwenbenkuang" unicode="&#59104;" d="M337.92 614.4V674.133333H392.533333v34.133334h-145.066666v-34.133334h56.32v-59.733333H158.72v-522.24H904.533333V614.4H337.92zM870.4 124.586667H192.853333V580.266667h110.933334v-261.12h-56.32v-34.133334H392.533333v34.133334h-56.32V580.266667H870.4v-455.68z"  horiz-adv-x="1024" />

    
    <glyph glyph-name="xialaliebiao" unicode="&#58943;" d="M84.845714 565.394286v-437.394286H936.228571V565.394286H84.845714zM526.628571 171.885714H128.731429V521.508571H526.628571v-349.622857z m203.337143 125.805715l-73.142857 73.142857H804.571429l-74.605715-73.142857z"  horiz-adv-x="1024" />

    
    <glyph glyph-name="biaodanzhizuoicon_kuozhan-" unicode="&#58942;" d="M832 832H192a128 128 0 0 1-128-128v-640a128 128 0 0 1 128-128h640a128 128 0 0 1 128 128V704a128 128 0 0 1-128 128z m64-768a64 64 0 0 0-64-64H192a64 64 0 0 0-64 64V704a64 64 0 0 0 64 64h640a64 64 0 0 0 64-64zM487.04 680.96h-55.68a32 32 0 1 1 0-64h56.32a32 32 0 1 1 0 64zM344.32 680.96H185.6a32 32 0 0 1 0-64h128v-472.32a32 32 0 0 1 64 0V648.96a32 32 0 0 1-33.28 32z"  horiz-adv-x="1024" />

    
    <glyph glyph-name="ic_add_circle_black_px" unicode="&#58969;" d="M512 810.666667C276.48 810.666667 85.333333 619.52 85.333333 384s191.146667-426.666667 426.666667-426.666667 426.666667 191.146667 426.666667 426.666667S747.52 810.666667 512 810.666667z m213.333333-469.333334h-170.666666v-170.666666h-85.333334v170.666666H298.666667v85.333334h170.666666V597.333333h85.333334v-170.666666h170.666666v-85.333334z"  horiz-adv-x="1024" />

    
    <glyph glyph-name="shuaxin" unicode="&#58964;" d="M84.463258 479.25248c3.0208 0 6.0672 0.39936 9.13408 1.19808l173.84448 46.57152a35.2 35.2 0 0 1 24.84736 43.0848c-5.03808 18.74944-24.23296 29.76256-43.0848 24.86272l-91.8528-24.63232c71.74656 154.48576 226.69824 255.3856 400.23552 255.3856 212.64896 0 395.2384-151.50592 434.1248-360.24832a35.15904 35.15904 0 0 1 40.99072-28.12416 35.13856 35.13856 0 0 1 28.12928 40.99072c-45.09696 242.02752-256.74752 417.69472-503.2448 417.69472-198.99392 0-376.86784-114.45248-461.19936-290.26304l-27.23328 101.72416c-5.03808 18.74944-24.27904 29.76256-43.07968 24.86784a35.18976 35.18976 0 0 1-24.86784-43.07968L50.522778 505.2928c4.1984-15.70304 18.42176-26.04032 33.94048-26.04032z m1033.29792-379.20256l-49.31072 183.9616c-5.01248 18.72896-24.25856 29.76768-43.05408 24.85248l-173.84448-46.57152a35.18464 35.18464 0 0 1-24.86272-43.07968c5.03808-18.74944 24.25856-29.78816 43.07456-24.86784l98.11456 26.33216c-66.16576-165.69856-229.5296-278.37952-410.28608-278.37952-213.41184 0-396.08832 152.11008-434.41152 361.69216-3.49184 19.12832-21.89312 31.79008-40.89856 28.26752a35.15904 35.15904 0 0 1-28.26752-40.88832c44.43648-243.0208 256.2048-419.38944 503.57248-419.38944 202.38848 0 385.77152 122.0608 467.15392 303.47776l25.09312-93.60896a35.1744 35.1744 0 0 1 43.0592-24.8832 35.18976 35.18976 0 0 1 24.86784 43.0848z"  horiz-adv-x="1118" />

    
    <glyph glyph-name="Group" unicode="&#58937;" d="M674.133333 213.333333H17.066667V887.466667h657.066666V213.333333zM93.866667 298.666667h486.4V802.133333H93.866667V298.666667zM1015.466667-102.4H349.866667V571.733333h657.066666v-674.133333z m-580.266667 85.333333h486.4V486.4H435.2v-503.466667z"  horiz-adv-x="1024" />

    
    <glyph glyph-name="shouji" unicode="&#58896;" d="M394.395 100.109c-26.407 0-47.89-21.482-47.89-47.891 0-26.407 21.484-47.891 47.89-47.891 26.408 0 47.893 21.483 47.893 47.891-0.001 26.409-21.485 47.891-47.893 47.891zM631.334 853.931H157.458c-39.865 0-72.298-32.433-72.298-72.298v-795.266c0-39.866 32.433-72.298 72.298-72.298h473.875c39.865 0 72.297 32.432 72.297 72.298V781.633c0.001 39.865-32.431 72.298-72.296 72.298zM157.458 805.732h473.875c13.289 0 24.1-10.812 24.1-24.1v-595.808H133.359V781.633c0 13.288 10.811 24.099 24.099 24.099z m473.876-843.463H157.458c-13.288 0-24.1 10.81-24.1 24.099V133.5h522.075v-147.133c0.001-13.289-10.81-24.098-24.099-24.098z"  horiz-adv-x="1024" />

    
    <glyph glyph-name="dayin" unicode="&#59011;" d="M960.967425 706.507911h-122.055778V804.868962C838.911647 849.662184 816.137103 896 771.343881 896H283.745178C238.919092 896 189.492089 849.662184 189.492089 804.868962v-98.328187H94.08877C49.295549 706.507911 0 660.038641 0 615.179691v-297.942296c0-44.793222 49.295549-70.788408 94.08877-70.788408h95.304728v-303.726307c0-44.858949 49.492731-70.426907 94.285953-70.426907H771.311018c44.793222 0 67.600629 25.600822 67.600629 70.426907v303.792035h122.055778c44.826086 0 68.58654 25.929459 68.58654 70.72268V615.179691c0 44.858949-23.760454 91.32822-68.58654 91.32822M246.280561 804.606053c0 14.755801 24.976411 37.727527 39.765076 37.727526h482.702012c14.821528 0 13.342662-22.971726 13.342662-37.727526v-97.375141H246.280561V804.606053m535.842614-849.526622c0-14.821528-11.633749-27.53978-26.455278-27.53978H272.933021c-14.788665 0-26.65246 12.718252-26.65246 27.53978V352.664463c0 14.821528 11.830932 26.816778 26.65246 26.816778h482.734876c14.821528 0 26.455278-11.99525 26.455278-26.816778v-397.585032m187.55313 363.735422c0-14.755801 1.643185-16.497577-13.145479-16.497577H835.723868v43.314355c0 44.365994-22.610225 90.638082-66.943355 90.638082H286.045637c-44.398857 0-93.365769-46.272088-93.365769-90.638082v-43.314355H98.295324c-14.788665 0-39.567894 1.741776-39.567894 16.497577V613.83228c0 14.755801 24.779229 36.774479 39.567894 36.774479h858.202638c14.755801 0 13.14548-22.018678 13.14548-36.774479v-295.017427h0.032863m-263.073911-57.051382H327.322443a26.553869 26.553869 0 0 1-27.079688-26.455278c0-15.01871 12.126705-26.521005 27.079688-26.521005h379.279951c14.952983 0 27.046824 11.502295 27.046825 26.521005a26.521005 26.521005 0 0 1-27.046825 26.455278m0-156.562662H327.322443a27.013961 27.013961 0 1 1 0-54.027922h379.279951a27.013961 27.013961 0 1 1 0 54.027922m124.389101 479.941461a39.863667 39.863667 0 1 1 79.727334 0 39.863667 39.863667 0 0 1-79.727334 0"  horiz-adv-x="1029" />

    
    <glyph glyph-name="xinzeng1" unicode="&#59067;" d="M514.98042 890.03916c-281.243253 0-509.01958-227.956959-509.01958-509.01958S233.917799-128 514.98042-128s509.01958 227.956959 509.01958 509.01958C1023.638737 662.262833 795.681778 890.03916 514.98042 890.03916z m0-949.760451c-243.491268 0-441.282766 197.791498-441.282766 441.282766S271.489152 822.844241 514.98042 822.844241 956.263186 624.872111 956.263186 381.561475 757.929794-59.721291 514.98042-59.721291zM752.149585 415.158935H548.758511V618.73064c0 18.605045-14.992415 34.139354-33.59746 34.139355S481.38296 637.87758 481.38296 618.73064V415.158935H277.26936c-18.605045 0-34.139354-14.992415-34.139355-33.59746S258.12242 347.783383 277.26936 347.783383H480.841065v-203.571705c0-18.605045 14.992415-34.139354 33.59746-34.139355s33.59746 14.992415 33.59746 34.139355V347.783383h203.571706c18.605045 0 34.139354 14.992415 34.139354 33.59746s-14.811783 33.778091-33.59746 33.778092z"  horiz-adv-x="1024" />

    
    <glyph glyph-name="jiantou-copy1" unicode="&#58907;" d="M701.3 312.81h142.153l-333.658-334.226-333.654 334.225h142.148v419.922h383.009z"  horiz-adv-x="1024" />

    
    <glyph glyph-name="yulan1" unicode="&#58902;" d="M512 563.2c-98.9696 0-179.2-80.2304-179.2-179.2s80.2304-179.2 179.2-179.2 179.2 80.2304 179.2 179.2-80.2304 179.2-179.2 179.2z m0-307.2c-70.69184 0-128 57.30816-128 128s57.30816 128 128 128 128-57.30816 128-128-57.30816-128-128-128z m0 486.4C229.22752 742.4 0 384 0 384s229.22752-358.4 512-358.4 512 358.4 512 358.4-229.22752 358.4-512 358.4z m0-665.6c-254.49472 0-460.8 307.2-460.8 307.2s206.30528 307.2 460.8 307.2 460.8-307.2 460.8-307.2-206.30528-307.2-460.8-307.2z"  horiz-adv-x="1024" />

    
    <glyph glyph-name="shuzixuanzeqi" unicode="&#59073;" d="M288 512V576.096C288 593.696 302.208 608 320 608c17.664 0 32-14.496 32-31.904V512h64.096c17.6 0 31.904-14.208 31.904-32 0-17.664-14.496-32-31.904-32H352v-64.096c0-17.6-14.208-31.904-32-31.904-17.664 0-32 14.496-32 31.904V448H223.904A31.872 31.872 0 0 0 192 480c0 17.664 14.496 32 31.904 32H288zM64 703.84C64 739.264 92.8 768 127.712 768H896.32C931.488 768 960 739.296 960 703.84v-639.68C960 28.73599999999999 931.2 0 896.288 0H127.68C92.512 0 64 28.70399999999995 64 64.15999999999997V703.84z m64-31.584v-576.512c0-17.184 14.336-31.744 32-31.744h704c17.696 0 32 14.208 32 31.744V672.256C896 689.44 881.664 704 864 704H160c-17.696 0-32-14.208-32-31.744zM576 256c0 17.664 14.016 32 32.096 32h159.808A31.968 31.968 0 0 0 800 256c0-17.664-14.016-32-32.096-32h-159.808A31.968 31.968 0 0 0 576 256z m-235.648-75.648a31.904 31.904 0 0 0-0.16 45.12L702.528 587.808a31.808 31.808 0 0 0 45.12-0.16 31.904 31.904 0 0 0 0.16-45.12L385.472 180.192a31.808 31.808 0 0 0-45.12 0.16z"  horiz-adv-x="1024" />

    
    <glyph glyph-name="pad" unicode="&#58890;" d="M62 803.925v-839.85c0-0.011 0-0.024 0-0.038 0-16.584 13.44-30.029 30.022-30.038h1079.956c16.585 0.022 30.023 13.472 30.023 30.060 0 0.006 0 0.010 0 0.016v839.849c0 0.011 0 0.024 0 0.038 0 16.584-13.44 30.029-30.022 30.038h-1079.956c-16.585-0.022-30.022-13.472-30.022-30.060 0-0.006 0-0.010 0-0.016zM32 803.925c0 33.18 26.887 60.075 60.022 60.075h1079.955c33.151-0.008 60.023-26.885 60.023-60.038 0-0.013 0-0.026 0-0.039v-839.848c0-33.18-26.887-60.075-60.023-60.075h-1079.955c-33.151 0.008-60.022 26.885-60.022 60.038 0 0.013 0 0.026 0 0.039v839.848zM257 864h30v-960h-30zM129.5 384c0-16.568 13.432-30 30-30s30 13.432 30 30c0 16.568-13.432 30-30 30-16.568 0-30-13.432-30-30zM287 729v-690h810v690h-810zM257 759h840.023c16.546-0.013 29.956-13.418 29.977-29.961v-690.077c0 0 0 0 0 0 0-16.548-13.415-29.962-29.963-29.962-0.006 0-0.010 0-0.016 0h-840.022v750z"  horiz-adv-x="1280" />

    
    <glyph glyph-name="timebook-" unicode="&#58970;" d="M310.72 667.52V512h43.36v155.52h59.04v35.36H251.68v-35.52h59.04z m150.56 4.48v32h-39.2v-32h39.2z m-39.2-21.44V512h39.2v138.08h-39.2z m109.12 0v41.6h-39.04v-41.6h-23.84V624h23.68v-81.92a34.72 34.72 0 0 1 4-16.32 25.12 25.12 0 0 1 9.76-9.92 41.44 41.44 0 0 1 14.4-4.64 117.44 117.44 0 0 1 17.28-1.28h11.84A96 96 0 0 1 560 512v28.8l-5.76-0.8h-6.4a19.52 19.52 0 0 0-13.28 3.2 18.24 18.24 0 0 0-3.36 12.96V624H560v26.08h-28.64z m37.92 52.96V512H608V704h-38.72z m155.52-107.36h-64a42.72 42.72 0 0 0 1.76 9.12 27.84 27.84 0 0 0 5.28 9.6 29.6 29.6 0 0 0 9.92 7.68 34.88 34.88 0 0 0 16 3.04 28 28 0 0 0 21.44-7.52 43.52 43.52 0 0 0 9.76-22.08z m-64-24.16h102.88a96 96 0 0 1-2.72 30.88 74.72 74.72 0 0 1-12.48 26.24 62.88 62.88 0 0 1-22.24 18.4 69.44 69.44 0 0 1-32 6.88 75.68 75.68 0 0 1-29.6-5.6 70.24 70.24 0 0 1-23.04-16 67.84 67.84 0 0 1-14.88-23.2 79.04 79.04 0 0 1-5.28-28.96 82.4 82.4 0 0 1 5.12-29.6 66.72 66.72 0 0 1 15.04-23.04 64 64 0 0 1 22.88-14.88 83.52 83.52 0 0 1 30.4-5.28A76.32 76.32 0 0 1 736 518.4a64 64 0 0 1 25.44 35.68h-34.4a24.16 24.16 0 0 0-10.56-12.16 41.12 41.12 0 0 0-45.76 2.08 37.92 37.92 0 0 0-9.6 26.88zM820.64-86.08H203.36a72 72 0 0 0-72 72V782.08a72 72 0 0 0 72 72h617.28a72 72 0 0 0 72-72v-796.16a72 72 0 0 0-72-72zM203.36 806.08a24 24 0 0 1-24-24v-796.16a24 24 0 0 1 24-24h617.28a24 24 0 0 1 24 24V782.08a24 24 0 0 1-24 24H203.36zM251.68 300.32l520.48 0 0-32.48-520.48 0 0 32.48ZM251.68 186.88l520.48 0 0-32.48-520.48 0 0 32.48ZM251.68 73.28l265.44 0 0-32.48-265.44 0 0 32.48Z"  horiz-adv-x="1024" />

    
    <glyph glyph-name="config" unicode="&#59136;" d="M953.6 499.2c-6.4 25.6-19.2 44.8-44.8 44.8h-6.4c-57.6 0-108.8 51.2-108.8 108.8 0 19.2 6.4 44.8 6.4 44.8 12.8 25.6 0 51.2-19.2 70.4l-108.8 64h-25.6c-19.2 0-32-6.4-44.8-19.2-12.8-12.8-57.6-51.2-89.6-51.2-32 0-76.8 38.4-89.6 51.2-6.4 12.8-25.6 19.2-38.4 19.2-12.8 0-19.2 0-25.6-6.4l-115.2-64c-25.6-12.8-32-44.8-19.2-70.4 0 0 6.4-19.2 6.4-44.8 0-57.6-51.2-108.8-108.8-108.8h-6.4c-19.2 0-38.4-19.2-44.8-44.8 0 0-6.4-44.8-6.4-83.2 0-38.4 6.4-89.6 6.4-89.6 6.4-25.6 19.2-44.8 44.8-44.8h6.4c57.6 0 108.8-51.2 108.8-108.8 0-19.2-6.4-44.8-6.4-44.8-12.8-25.6 0-51.2 19.2-70.4l108.8-64c6.4-6.4 12.8-6.4 25.6-6.4 19.2 0 32 6.4 44.8 19.2 12.8 19.2 57.6 51.2 89.6 51.2 32 0 76.8-38.4 89.6-51.2 12.8-12.8 25.6-19.2 44.8-19.2 6.4 0 12.8 0 25.6 6.4l115.2 64c19.2 12.8 32 44.8 19.2 70.4 0 0-12.8 19.2-12.8 44.8 0 57.6 51.2 108.8 108.8 108.8h6.4c19.2 0 38.4 19.2 44.8 44.8 0 0 6.4 51.2 6.4 89.6 0 38.4-6.4 83.2-6.4 89.6M377.6 51.2l-96 51.2c6.4 12.8 12.8 38.4 12.8 64 0 89.6-70.4 166.4-160 172.8 0 12.8-6.4 44.8-6.4 70.4 0 25.6 6.4 57.6 6.4 70.4 89.6 6.4 160 83.2 160 172.8 0 25.6-6.4 51.2-12.8 64l102.4 51.2s19.2-19.2 38.4-32c32-25.6 64-38.4 96-38.4 25.6 0 57.6 12.8 89.6 32l38.4 38.4 96-51.2c-6.4-12.8-12.8-38.4-12.8-64 0-89.6 70.4-166.4 160-172.8 0-12.8 6.4-44.8 6.4-70.4 0-25.6-6.4-57.6-6.4-70.4-89.6-6.4-160-83.2-160-172.8 0-25.6 6.4-51.2 12.8-64l-96-57.6c-6.4 6.4-19.2 19.2-38.4 32-32 25.6-64 38.4-96 38.4s-64-12.8-96-38.4c-19.2-6.4-38.4-19.2-38.4-25.6M377.6 51.2zM704 403.2c0 108.8-83.2 192-192 192s-192-83.2-192-192 83.2-192 192-192 192 89.6 192 192M512 531.2c70.4 0 128-57.6 128-128s-57.6-128-128-128-128 57.6-128 128 57.6 128 128 128M512 531.2z"  horiz-adv-x="1024" />

    
    <glyph glyph-name="youjian" unicode="&#58891;" d="M512.085 696.974c105.589 0 211.178 0.013 316.772-0.004 37.719-0.008 69.325-11.071 86.149-48.297 7.496-16.574 5.908-28.005-12.197-39.288C777.952 531.537 653.8 452.548 529.893 373.194c-13.413-8.59-22.38-8.693-35.883-0.04C368.8 453.449 243.152 533.059 117.28 612.32c-11.537 7.27-14.868 14.144-10.911 27.215 8.978 29.642 28.023 48.03 58.02 54.196 12.401 2.55 25.388 3.088 38.117 3.118 103.19 0.232 206.385 0.13 309.579 0.125z m0 0M510.989 71.041c-107.185 0-214.372-0.125-321.558 0.062-43.303 0.075-72.027 20.284-82.814 55.598-3.89 12.74-1.934 20.194 9.86 27.57 98.28 61.524 196.037 123.872 294.525 185.05 6.61 4.102 19.542 3.857 26.688 0.155 20.519-10.64 39.994-23.491 59.043-36.686 10.739-7.438 19.157-7.832 30.082-0.292 19.072 13.155 39.688 24.088 58.636 37.405 11.044 7.757 18.828 6.515 29.78-0.488 96.324-61.63 192.865-122.919 289.916-183.396 14.969-9.332 16.407-19.587 11.425-33.98-11.221-32.396-41.045-50.869-84.02-50.94-107.185-0.173-214.377-0.058-321.563-0.058z m0 0M105.393 551.657c88.16-56.112 174.706-111.195 263.889-167.955-88.911-56.6-175.062-111.44-263.889-167.986V551.657z m0 0M918.648 551.435v-335.419c-88.943 56.61-175.239 111.543-263.431 167.676 88.41 56.3 174.376 111.036 263.43 167.743z m0 0"  horiz-adv-x="1024" />

    
    <glyph glyph-name="biaoge" unicode="&#59399;" d="M906.24 834.56h-788.48C83.968 834.56 61.44 812.032 61.44 778.24V46.08c0-61.952 50.688-112.64 112.64-112.64h675.84c61.952 0 112.64 50.688 112.64 112.64V778.24C962.56 812.032 940.032 834.56 906.24 834.56z m-563.2-844.8h-225.28V158.72h225.28v-168.96z m0 225.28h-225.28V384h225.28v-168.96z m0 225.28h-225.28V609.28h225.28v-168.96z m281.6-450.56H399.36V158.72h225.28v-168.96z m0 225.28H399.36V384h225.28v-168.96z m0 225.28H399.36V609.28h225.28v-168.96z m281.6-450.56h-225.28V158.72h225.28v-168.96z m0 225.28h-225.28V384h225.28v-168.96z m0 225.28h-225.28V609.28h225.28v-168.96z"  horiz-adv-x="1024" />

    
    <glyph glyph-name="tubiao_tongji-copy" unicode="&#59023;" d="M85.333-71.111h853.333c17.067 0 28.444 11.378 28.444 28.444s-11.378 28.444-28.444 28.444h-853.333c-17.067 0-28.444-11.378-28.444-28.444s11.378-28.444 28.444-28.444zM85.333-71.111c-17.067 0-28.444 11.378-28.444 28.444v853.333c0 17.067 11.378 28.444 28.444 28.444s28.444-11.378 28.444-28.444v-853.333c0-17.067-11.378-28.444-28.444-28.444zM961.422 605.867c-11.378 11.378-28.444 11.378-39.822 0l-278.756-301.511-136.533 130.844c-5.689 5.689-11.378 5.689-17.067 5.689-11.378 0-17.067 0-22.756-5.689l-233.244-227.556c-11.378-11.378-11.378-28.444 0-39.822s28.444-11.378 39.822 0l210.489 210.489 130.844-130.844c5.689-5.689 11.378-5.689 22.756-5.689 5.689 0 17.067 0 22.756 5.689l301.511 318.578c5.689 11.378 5.689 28.444 0 39.822z"  horiz-adv-x="1024" />

    
    <glyph glyph-name="fuwuqi1" unicode="&#58892;" d="M600.677917-8.431138h268.263473c19.928144 0 33.724551-13.796407 33.724551-30.658682s-13.796407-30.658683-33.724551-30.658683h-268.263473c4.598802 9.197605 7.664671 19.928144 7.664671 30.658683s-3.065868 19.928144-7.664671 30.658682z m-93.508982 45.988024c41.389222 0 76.646707-35.257485 76.646706-76.646706s-35.257485-76.646707-76.646706-76.646707-76.646707 35.257485-76.646707 76.646707 35.257485 76.646707 76.646707 76.646706z m-30.658683 15.329342h61.317365v61.317365h-61.317365v-61.317365z m-334.17964-61.317366h272.862275c-4.598802-9.197605-7.664671-19.928144-7.664671-30.658682s3.065868-21.461078 7.664671-30.658683h-272.862275c-19.928144 0-33.724551 13.796407-33.724551 30.658683s15.329341 30.658683 33.724551 30.658682z m610.107784 766.467066h61.317365v61.317365h-61.317365v-61.317365z m-76.646707 61.317365c-16.862275 0-30.658683-13.796407-30.658682-30.658682s13.796407-30.658683 30.658682-30.658683 30.658683 13.796407 30.658683 30.658683-13.796407 30.658683-30.658683 30.658682z m-107.305389 0c-16.862275 0-30.658683-13.796407-30.658683-30.658682s13.796407-30.658683 30.658683-30.658683 30.658683 13.796407 30.658683 30.658683-13.796407 30.658683-30.658683 30.658682z m291.257485-137.964071h-705.1497c-24.526946 0-45.988024 19.928144-45.988024 47.520958v118.035928c0 24.526946 19.928144 47.520958 45.988024 47.520958h705.1497c24.526946 0 45.988024-19.928144 45.988024-47.520958v-118.035928c0-27.592814-21.461078-47.520958-45.988024-47.520958z m-107.305389-199.281438h61.317365v61.317366h-61.317365v-61.317366z m-76.646707 61.317366c-16.862275 0-30.658683-13.796407-30.658682-30.658683s13.796407-30.658683 30.658682-30.658683 30.658683 13.796407 30.658683 30.658683c0 15.329341-13.796407 30.658683-30.658683 30.658683z m-107.305389 0c-16.862275 0-30.658683-13.796407-30.658683-30.658683s13.796407-30.658683 30.658683-30.658683 30.658683 13.796407 30.658683 30.658683c1.532934 15.329341-13.796407 30.658683-30.658683 30.658683z m291.257485-137.964072h-705.1497c-24.526946 0-45.988024 19.928144-45.988024 47.520958v118.035928c0 24.526946 19.928144 47.520958 45.988024 47.520958h705.1497c24.526946 0 45.988024-19.928144 45.988024-47.520958v-118.035928c0-27.592814-21.461078-47.520958-45.988024-47.520958z m-107.305389-199.281437h61.317365v61.317365h-61.317365v-61.317365z m-76.646707 61.317365c-16.862275 0-30.658683-13.796407-30.658682-30.658683s13.796407-30.658683 30.658682-30.658682 30.658683 13.796407 30.658683 30.658682-13.796407 30.658683-30.658683 30.658683z m-107.305389 0c-16.862275 0-30.658683-13.796407-30.658683-30.658683s13.796407-30.658683 30.658683-30.658682 30.658683 13.796407 30.658683 30.658682c1.532934 16.862275-13.796407 30.658683-30.658683 30.658683z m291.257485-137.964072h-705.1497c-24.526946 0-45.988024 19.928144-45.988024 47.520958v118.035928c0 24.526946 19.928144 47.520958 45.988024 47.520958h705.1497c24.526946 0 45.988024-19.928144 45.988024-47.520958v-118.035928c0-24.526946-21.461078-47.520958-45.988024-47.520958z"  horiz-adv-x="1024" />

    
    <glyph glyph-name="tupian" unicode="&#59199;" d="M972.8 793.6H51.2A51.2 51.2 0 0 1 0 742.4v-716.8a51.2 51.2 0 0 1 51.2-51.2h921.6a51.2 51.2 0 0 1 51.2 51.2V742.4a51.2 51.2 0 0 1-51.2 51.2z m0-540.16L704 504.32a51.84 51.84 0 0 1-71.68 0l-89.6-89.6a47.36 47.36 0 0 0-64-5.12l-89.6 56.32a49.92 49.92 0 0 1-58.88 0L51.2 250.88V742.4h921.6z"  horiz-adv-x="1024" />

    
    <glyph glyph-name="xiazai" unicode="&#58883;" d="M862.495 56.794v0c-17.844 0-32.327 14.466-32.327 32.327s14.482 32.327 32.327 32.327h9.214c110.574 0 183.569 122.778 183.569 232.949 0 121.065-105.321 218.498-225.384 221.019l-23.308 0.501-6.902 22.257c-33.362 107.908-105.5 171.172-233.903 171.172-160.196 0-263.82-118.769-263.82-276.234l0.243-0.372 2.618-29.644-29.337-5.059c-71.491-12.284-128.483-85.618-128.483-166.904 0-91.987 71.248-169.685 154.394-169.685h28.738c17.844 0 32.327-14.466 32.327-32.327s-14.483-32.327-32.327-32.327h-28.738c-118.204 0-218.062 107.309-218.062 234.338 0 103.77 64.832 195.384 154.637 224.108 11.217 180.466 141.528 318.761 327.812 318.761 146.377 0 243.292-75.775 288.389-195.417 146.183-15.728 263.109-134.965 263.109-284.186 0-138.812-93.167-293.254-254.801-297.505v-0.097zM599.854 3.422l103.77 114.438c9.036 9.44 23.647 9.44 32.666 0l8.147-6.498c9.035-9.472 9.035-20.706 0-30.144l-119.642-131.069c-0.161-0.194-0.226-0.372-0.372-0.533l-8.179-8.567c-4.477-4.735-10.441-7.080-16.389-7.031-5.964-0.033-11.896 2.312-16.455 7.031l-8.179 8.567c-0.161 0.162-0.194 0.372-0.339 0.533l-116.684 129.050c-9.036 9.44-9.036 24.714 0 34.186l8.147 4.478c9.036 9.44 23.679 7.418 32.699-2.020l100.811-112.417zM600.193 397.181c17.844 0 32.327-14.482 32.327-32.327v-355.597c0-17.86-14.483-32.327-32.327-32.327s-32.327 14.466-32.327 32.327v355.597c0 17.844 14.466 32.327 32.327 32.327z"  horiz-adv-x="1177" />

    
    <glyph glyph-name="rili" unicode="&#58918;" d="M922.88 832H816V864a32 32 0 1 1-64 0v-32h-512V864a32 32 0 0 1-64 0v-32H101.12A101.216 101.216 0 0 1 0 730.88v-757.76A101.216 101.216 0 0 1 101.12-128h821.76A101.248 101.248 0 0 1 1024-26.88V730.88A101.216 101.216 0 0 1 922.88 832zM960-26.88c0-20.48-16.672-37.12-37.12-37.12H101.12C80.672-64 64-47.328 64-26.88V730.88C64 751.328 80.672 768 101.12 768H176v-64a32 32 0 0 1 64 0V768h512v-64a32 32 0 1 1 64 0V768h106.88c20.448 0 37.12-16.672 37.12-37.12v-757.76zM336 560h128v-128h-128zM528 560h128v-128h-128zM720 560h128v-128h-128zM336 368h128v-128h-128zM144 368h128v-128h-128zM528 368h128v-128h-128zM720 368h128v-128h-128zM336 176h128v-128h-128zM144 176h128v-128h-128zM528 176h128v-128h-128zM720 176h128v-128h-128z"  horiz-adv-x="1024" />

    
    <glyph glyph-name="zuosuojin" unicode="&#58951;" d="M469.3330000000001 170.66700000000003H896V256H469.3330000000001v-85.333zM128 384l170.667-170.667V554.6669999999999L128 384z m0-384h768v85.333H128V0z m0 768v-85.333h768V768H128z m341.333-256H896v85.333H469.3330000000001V512z m0-170.667H896v85.334H469.3330000000001v-85.334z"  horiz-adv-x="1024" />

    
    <glyph glyph-name="rilijiantouyoushuang" unicode="&#58884;" d="M499.97769400000004 393.4364606666667c-0.6170800000000002-0.5484919999999998-1.2249490000000003-1.1113109999999995-1.8164450000000008-1.7017579999999994-16.320372-16.319686999999995-16.320372000000013-42.77522199999999-2.1316282072803006e-14-59.09491L887.309207-56.49080833333346c16.320371999999995-16.319687 42.777018-16.319687000000005 59.09738999999999-2.1316282072803006e-14 16.312185000000007 16.31968699999999 16.312185000000014 42.76703599999999 7.105427357601002e-15 59.08672299999999l-359.6069379999999 359.5918450000001L942.712307 718.0854686666663c18.350697000000007 18.358112999999996 20.00545300000002 46.46014799999998 3.6932670000000165 62.779835-16.320371999999995 16.319687-44.43177299999999 14.665001000000018-62.782469999999996-3.6931119999999886l-381.7685870000002-381.75256399999984C501.206737 394.7718756666666 500.58454 394.1087726666666 499.97769400000004 393.4364606666667zM80.333932 332.63979266666684L469.4818899999998-56.490808333333234c16.320371999999995-16.319687 42.777018-16.319687000000005 59.09738999999999-2.1316282072803006e-14 16.312185000000007 16.31968699999999 16.312185000000014 42.76703599999999 7.105427357601002e-15 59.08672299999999l-359.6069379999999 359.5918450000001L524.8860119999999 718.0854686666667c18.350697000000007 18.358112999999996 20.00545300000002 46.46014799999998 3.6932670000000165 62.779835-16.320371999999995 16.319687-44.43177299999999 14.665001000000018-62.782469999999996-3.6931119999999886l-381.7685870000002-381.75256399999984c-0.6488030000000002-0.6477529999999999-1.2710000000000001-1.311879-1.8768220000000004-1.9831669999999995-0.6170800000000002-0.5484919999999998-1.2249490000000003-1.1113109999999995-1.8164450000000008-1.7017579999999994C64.0135590000001 375.4150156666667 64.01355899999999 348.9594796666669 80.333932 332.63979266666684z"  horiz-adv-x="1024" />

    
    <glyph glyph-name="qingkong" unicode="&#59007;" d="M940.0605202962962 701.5935241481482H83.94069333333329c-15.272315259259258 0-27.61735585185185 12.345040592592593-27.61735585185185 27.61614222222222 0 15.245615407407405 12.345040592592593 27.61735585185185 27.61735585185185 27.61735585185185H940.0593066666668c15.272315259259258 0 27.61735585185185-12.371740444444447 27.61735585185185-27.61735585185185 0-15.271101629629628-12.345040592592593-27.61614222222222-27.61735585185185-27.61614222222222zM663.8930299259259 812.0593066666668H360.10697007407407c-15.271101629629628 0-27.61614222222222 12.345040592592593-27.61614222222222 27.61735585185185 0 15.243188148148148 12.345040592592593 27.61614222222222 27.61614222222222 27.61614222222222h303.7860598518518c15.271101629629628 0 27.61614222222222-12.371740444444447 27.61614222222222-27.61614222222222 0-15.272315259259258-12.345040592592593-27.61735585185185-27.61614222222222-27.61735585185185zM387.72432592592594 94.02383170370376V563.5079585185185c0 15.244401777777778 12.345040592592593 27.61735585185185 27.61735585185185 27.61735585185185s27.61614222222222-12.372954074074073 27.61614222222222-27.61735585185185v-469.4853404444444c0-15.272315259259258-12.345040592592593-27.61735585185185-27.61614222222222-27.61735585185185S387.72432592592594 78.7515164444444 387.72432592592594 94.02383170370376z m193.31785007407407 0V563.5079585185185c0 15.244401777777778 12.345040592592593 27.61735585185185 27.61614222222222 27.61735585185185S636.275674074074 578.7535739259259 636.275674074074 563.5079585185185v-469.4853404444444c0-15.272315259259258-12.345040592592593-27.61735585185185-27.61735585185185-27.61735585185185s-27.61614222222222 12.345040592592593-27.61614222222222 27.61735585185185zM194.4052622222223 618.7426702222223c15.272315259259258 0 27.61735585185185-12.371740444444447 27.61735585185185-27.61614222222222V11.17297777777776c0-30.488803555555556 24.744694518518514-55.23349807407408 55.23228444444444-55.23349807407408h469.4865540740741c30.488803555555556 0 55.23349807407408 24.744694518518514 55.23349807407408 55.23349807407408V591.126528c0 15.243188148148148 12.345040592592593 27.61614222222222 27.61735585185185 27.61614222222222s27.61614222222222-12.371740444444447 27.61614222222222-27.61614222222222V-16.444378074074166c0-45.76111881481482-37.08852148148148-82.8496402962963-82.8496402962963-82.8496402962963H249.63997392592586c-45.76111881481482 0-82.8496402962963 37.08852148148148-82.8496402962963 82.8496402962963V591.126528c0 15.243188148148148 12.343826962962961 27.61614222222222 27.61614222222222 27.61614222222222z"  horiz-adv-x="1024" />

    
    <glyph glyph-name="chaifen" unicode="&#58910;" d="M536.386329 896v-487.613671H1024V896H536.386329zM975.227343 457.136406H585.136406V847.227343H975.227343v-390.090937zM0-128h487.613671V359.636251H0V-128z m48.772657 438.863594h390.090937V-79.227343H48.772657V310.863594zM97.522734-30.454686h292.568203V262.090937H97.522734V-30.454686z m48.772657 243.795546l78.916869-81.603881 77.471753 77.426593 34.479559-34.456979-77.629812-77.629812 81.8071-78.75881H146.295391v195.022889z m-48.772657 292.568203h292.568203V798.477266H97.522734v-292.568203z m48.772657 243.795546h195.045469l-81.8071-78.75881 77.629812-77.629812-34.479559-34.479559L225.18968 636.330761l-78.916869-81.671621V749.704609zM633.909063-30.454686H926.454686V262.090937H633.909063V-30.454686z m52.949945 205.138699l34.456979 34.456979 77.449173-77.426593 78.939449 81.603881v-195.045469h-195.045469l81.8071 78.75881-77.607232 77.652392zM0 408.386329h487.613671V896H0v-487.613671zM48.772657 847.227343h390.090937v-390.090937H48.772657V847.227343z m487.613672-975.227343H1024V359.636251H536.386329V-128z m48.750077 438.863594H975.227343V-79.227343H585.136406V310.863594zM926.454686 798.477266H633.909063v-292.568203H926.454686V798.477266z m-48.750077-243.818126L798.76516 636.330761l-77.449173-77.494333-34.456979 34.479559 77.629812 77.629812-81.8071 78.75881h195.045469v-195.045469z"  horiz-adv-x="1024" />

    
    <glyph glyph-name="tongjitu" unicode="&#58986;" d="M706.56 491.52l211.626667 85.333333c-69.973333 136.533333-204.8 233.813333-365.226667 247.466667v-228.693333c63.146667-11.946667 119.466667-49.493333 153.6-104.106667zM281.6 366.933333c0 110.933333 80.213333 206.506667 189.44 226.986667V824.32C237.226667 803.84 54.613333 607.573333 54.613333 366.933333c0-98.986667 30.72-194.56 90.453334-273.066666l170.666666 153.6c-22.186667 35.84-34.133333 76.8-34.133333 119.466666z m455.68 47.786667c3.413333-15.36 5.12-30.72 5.12-46.08 0-128-102.4-232.106667-230.4-232.106667-51.2 0-100.693333 17.066667-141.653333 49.493334l-170.666667-153.6c81.92-76.8 191.146667-122.88 312.32-122.88 252.586667 0 457.386667 204.8 457.386667 459.093333 0 46.08-6.826667 90.453333-18.773334 133.12l-213.333333-87.04z"  horiz-adv-x="1024" />

    
    <glyph glyph-name="yasuobao" unicode="&#58887;" d="M428.01664 719.4112h84.0192v-56.0128h-84.0192V719.4112z m-84.0192-56.00768h84.0192v-56.0128h-84.0192v56.0128z m84.0192-56.0128h84.0192v-56.0128h-84.0192v56.0128z m-84.0192-56.0128h84.0192v-56.0128h-84.0192v56.0128z m84.0192-56.0128h84.0192v-56.00768h-84.0192V495.36512z m-84.0192-56.00768h84.0192v-56.0128h-84.0192v56.0128z m84.0192-56.0128v-56.0128H344.00256v-196.03968c0-15.4624 12.544-28.0064 28.0064-28.0064h112.02048c15.45728 0 28.0064 12.544 28.0064 28.0064v252.05248h-84.0192z m56.0128-224.04608h-112.0256v56.00768h112.02048v-56.00768z m370.56 497.60256L729.5488 781.92128c-27.21792 27.21792-81.01888 49.5104-119.53152 49.5104H189.93152c-38.50752 0-70.01088-31.50336-70.01088-70.01088v-756.15744c0-38.50752 31.50336-70.016 70.01088-70.016h644.13184c38.50752 0 70.016 31.50848 70.016 70.016V537.37472c0 38.50752-22.29248 92.30848-49.51552 119.53152l0.0256-0.00512z m-39.58784-39.6032c2.74432-2.74432 5.45792-6.10304 8.1152-9.91232h-143.04768V750.4384c3.80416-2.6624 7.16288-5.38112 9.91744-8.1152l125.01504-125.02528z m33.1008-612.03456c0-7.59296-6.41024-14.0032-13.99808-14.0032H189.97248c-7.59296 0-14.0032 6.41024-14.0032 14.0032V761.4208c0 7.59296 6.41024 14.0032 14.0032 14.0032h420.08576c4.23424 0 8.96-0.53248 14.0032-1.48992V551.3728h222.56128c0.95232-5.0432 1.4848-9.76896 1.4848-14.0032l-0.00512-532.10624z"  horiz-adv-x="1024" />

    
    <glyph glyph-name="duohangwenbenkuang" unicode="&#58916;" d="M360.192 630.656v61.696h57.088v48.064H255.808v-48.064h56.96v-61.696H152.064v-539.136h771.712V630.656H360.192z m514.496-178.56h-138.304V584.384h138.304v-132.288z m-138.304-48.128h138.304V320h-138.304V403.968z m-536.96 178.688h113.344v-256.768h-56.96v-48h159.744v48h-57.024V582.656h330.624v-443.072H199.424V582.656z m536.96-443.136V271.872h138.304v-132.352h-138.304z m36.288 374.976c0-18.496 14.656-33.536 32.832-33.536 18.112 0 32.896 15.04 32.896 33.536s-14.656 33.408-32.896 33.408-32.832-15.04-32.832-33.408z m0-315.52c0-18.56 14.656-33.472 32.832-33.472a33.152 33.152 0 0 1 32.896 33.472c0 18.496-14.656 33.472-32.896 33.472s-32.832-14.976-32.832-33.472z"  horiz-adv-x="1024" />

    
    <glyph glyph-name="correct" unicode="&#58967;" d="M512-128C229.248-128 0 101.24800000000005 0 384S229.248 896 512 896s512-229.248 512-512-229.248-512-512-512z m289.109333 678.869333l-60.8 60.672-333.952-333.994666-146.432 145.706666-60.8-60.672 207.914667-206.122666 60.288 60.416-0.042667 0.085333 333.824 333.909333z"  horiz-adv-x="1024" />

    
    <glyph glyph-name="xinzeng2" unicode="&#58932;" d="M977.454545-128H46.545455a46.545455 46.545455 0 0 0-46.545455 46.545455V849.454545a46.545455 46.545455 0 0 0 46.545455 46.545455h930.90909a46.545455 46.545455 0 0 0 46.545455-46.545455v-930.90909a46.545455 46.545455 0 0 0-46.545455-46.545455z m0 930.909091a46.545455 46.545455 0 0 1-46.545454 46.545454H93.090909a46.545455 46.545455 0 0 1-46.545454-46.545454v-837.818182a46.545455 46.545455 0 0 1 46.545454-46.545454h837.818182a46.545455 46.545455 0 0 1 46.545454 46.545454V802.909091z m-162.90909-442.181818H535.272727v-302.545455a23.272727 23.272727 0 0 0-46.545454 0V360.727273H209.454545a23.272727 23.272727 0 0 0 0 46.545454h279.272728V686.545455a23.272727 23.272727 0 0 0 46.545454 0v-279.272728h279.272728a23.272727 23.272727 0 0 0 0-46.545454z"  horiz-adv-x="1024" />

    
    <glyph glyph-name="duohangwenben" unicode="&#58998;" d="M607.674182 55.621818v-29.253818H209.408V55.621818q65.792 0 84.782545 16.290909 23.435636 19.851636 23.435637 91.298909V780.101818a241.896727 241.896727 0 0 1-128.302546-28.090182q-72.587636-45.637818-86.993454-169.704727h-32.349091L73.309091 817.547636h669.323636l2.327273-235.240727h-32.442182q-14.498909 122.88-85.876363 168.541091a237.777455 237.777455 0 0 1-128.232728 29.253818v-616.727273q0-71.400727 23.435637-91.298909 18.874182-16.453818 85.829818-16.453818z m149.201454 354.327273h162.490182a34.187636 34.187636 0 0 0 34.187637-34.187636v-0.256a34.187636 34.187636 0 0 0-34.187637-34.187637h-162.513454a34.187636 34.187636 0 0 0-34.187637 34.187637v0.256a34.187636 34.187636 0 0 0 34.187637 34.187636z m0-203.450182h162.676364a34.071273 34.071273 0 0 0 34.071273-34.071273v-0.372363a34.071273 34.071273 0 0 0-34.071273-34.071273h-162.816a34.071273 34.071273 0 0 0-34.071273 34.071273v0.349091a34.071273 34.071273 0 0 0 34.071273 34.094545z m0.325819-185.157818h162.048a34.397091 34.397091 0 0 0 34.280727-34.350546v-2.094545a34.397091 34.397091 0 0 0-34.397091-34.397091h-162.048a34.397091 34.397091 0 0 0-34.397091 34.397091v2.094545a34.397091 34.397091 0 0 0 34.397091 34.350546z"  horiz-adv-x="1024" />

    
    <glyph glyph-name="gouwuche_xuanzeshuliang-" unicode="&#58899;" d="M1755.27701821 573.50756836H273.07194009c-15.91918945 0-28.87207031-12.95288086-28.87207031-28.8918457v-367.36743164c0-15.93896484 12.95288086-28.8918457 28.87207031-28.89184571h1482.18530273c15.93896484 0 28.8918457 12.95288086 28.8918457 28.89184571V544.6157226600001a28.8918457 28.8918457 0 0 1-28.87207031 28.8918457z m-386.39135742-19.77539063v-385.60034179H659.4830729V553.73217773h709.40258789zM263.9752604 177.24829102V544.6157226600001c0 5.02294922 4.09350586 9.11645508 9.09667969 9.11645507h366.63574219v-385.60034179H273.07194009a9.13623047 9.13623047 0 0 0-9.09667969 9.11645508z m1500.41821289 0a9.13623047 9.13623047 0 0 0-9.11645508-9.11645508H1388.66105142V553.73217773h366.61596679c5.02294922 0 9.11645508-4.09350586 9.11645508-9.11645507v-367.36743164zM340.58512368 370.82958984000004h217.52929688v-19.77539062h-217.52929688zM1597.54850259 469.70654297h-19.77539063v-98.87695313h-98.87695312v-19.77539062h98.87695312v-98.87695313h19.77539063v98.87695313h98.87695312v19.77539062h-98.87695312z"  horiz-adv-x="2048" />

    
    <glyph glyph-name="quanxian" unicode="&#58989;" d="M955.321073 767.730004c-6.719895 6.079905-15.679755 8.95986-24.735613 8.063874-2.399963-0.287996-249.340104-23.967626-390.553898 111.294261a32.0315 32.0315 0 0 1-44.447306-0.159997c-139.037828-135.03789-387.86594-111.35826-390.3939-111.102264a31.967501 31.967501 0 0 1-35.263449-31.807503v-239.99625c0-519.223887 436.089186-630.038156 440.505117-631.094139a31.167513 31.167513 0 0 1 14.975767-0.032c4.415931 1.055984 440.505117 111.902252 440.505117 631.094139v239.99625a31.935501 31.935501 0 0 1-10.591835 23.743629z m-53.407165-263.739879c0-437.241168-328.218872-550.743395-383.994-566.839143-55.935126 16.159748-383.994 129.725973-383.994001 566.839143V710.130904c75.774816-2.207966 256.187997 5.343917 384.121999 111.070265 129.117983-105.59835 308.539179-113.054234 383.866002-111.070265v-206.140779zM673.91747 518.005906c0 91.51857-74.462837 165.981407-166.013406 165.981407s-166.013406-74.462837-166.013406-165.981407c0-83.998688 62.943017-152.893611 143.99775-163.773441V159.9955a31.9995 31.9995 0 0 1 63.999 0v63.999h63.999a31.9995 31.9995 0 0 1 0 63.999h-63.999v70.046906c71.166888 18.751707 124.030062 83.038703 124.030062 159.9655z m-267.995813 0c0 56.255121 45.759285 102.014406 102.014406 102.014406s102.014406-45.759285 102.014407-102.014406S564.159185 415.9915 507.904064 415.9915s-101.982407 45.759285-101.982407 102.014406z"  horiz-adv-x="1024" />

    
    <glyph glyph-name="fuwuqi2" unicode="&#58930;" d="M512 663.272727C306.362182 663.272727 139.636364 704.954182 139.636364 756.363636s166.725818 93.090909 372.363636 93.090909 372.363636-41.681455 372.363636-93.090909-166.725818-93.090909-372.363636-93.090909z m372.363636-93.090909c0-51.409455-166.725818-93.090909-372.363636-93.090909S139.636364 518.772364 139.636364 570.181818V692.573091C209.175273 647.563636 349.649455 616.727273 512 616.727273c162.373818 0 302.824727 30.836364 372.363636 75.845818V570.181818z m-372.363636-186.181818c-205.637818 0-372.363636 41.681455-372.363636 93.090909 0 7.773091 4.235636 15.266909 11.403636 22.481455C223.813818 458.309818 358.027636 430.545455 512 430.545455s288.186182 27.764364 360.983273 69.026909c7.144727-7.214545 11.380364-14.708364 11.380363-22.481455 0-51.409455-166.725818-93.090909-372.363636-93.090909z m372.363636-93.090909c0-51.409455-166.725818-93.090909-372.363636-93.090909S139.636364 239.499636 139.636364 290.909091v122.391273C209.175273 368.290909 349.649455 337.454545 512 337.454545c162.373818 0 302.824727 30.836364 372.363636 75.845819V290.909091z m-372.363636-186.181818c-205.637818 0-372.363636 41.681455-372.363636 93.090909 0 7.773091 4.235636 15.266909 11.403636 22.481454C223.813818 179.037091 358.027636 151.272727 512 151.272727s288.186182 27.764364 360.983273 69.026909c7.144727-7.214545 11.380364-14.708364 11.380363-22.481454 0-51.409455-166.725818-93.090909-372.363636-93.090909z m372.363636-93.090909c0-51.409455-166.725818-93.090909-372.363636-93.090909S139.636364-39.773091 139.636364 11.636364v122.391272C209.175273 89.018182 349.649455 58.181818 512 58.181818c162.373818 0 302.824727 30.836364 372.363636 75.845818V11.636364z m46.545455 744.727272c0 77.102545-187.554909 139.636364-418.909091 139.636364S93.090909 833.466182 93.090909 756.363636v-186.181818c0-16.360727 8.866909-31.976727 24.366546-46.545454C101.957818 509.044364 93.090909 493.428364 93.090909 477.090909v-186.181818c0-16.360727 8.866909-31.976727 24.343273-46.545455C101.957818 229.771636 93.090909 214.155636 93.090909 197.818182v-186.181818c0-77.102545 187.554909-139.636364 418.909091-139.636364s418.909091 62.533818 418.909091 139.636364v186.181818c0 16.337455-8.866909 31.953455-24.343273 46.545454 15.476364 14.568727 24.343273 30.184727 24.343273 46.545455v186.181818c0 16.337455-8.866909 31.953455-24.343273 46.545455 15.476364 14.568727 24.343273 30.184727 24.343273 46.545454V756.363636z"  horiz-adv-x="1024" />

    
    <glyph glyph-name="newbilayout" unicode="&#59281;" d="M488.33 834H62v-900h900V834H488.33z m0-852.66H109.34V786.66h378.99v-805.32z m426.33 0H535.67V360.33000000000004h378.99v-378.99z m0 426.33H535.67V786.66h378.99v-378.99z"  horiz-adv-x="1024" />

    
    <glyph glyph-name="huiyi" unicode="&#59114;" d="M901.1 822.6H122.9C54.6 822.6 0 768 0 699.7v-320.9c0-11.9 10.2-22.2 22.2-22.2s22.2 10.2 22.2 22.2V699.7c0 44.4 35.8 78.5 78.5 78.5h778.2c44.4 0 78.5-35.8 78.5-78.5v-320.9c0-11.9 10.2-22.2 22.2-22.2s22.2 10.2 22.2 22.2V699.7c0 66.6-54.6 122.9-122.9 122.9zM643.4 209.9c-6.8-10.2-3.4-23.9 6.8-30.7 68.3-44.4 110.9-119.5 114.3-201.4 0-11.9 10.2-20.5 22.2-20.5h1.7c11.9 0 22.2 10.2 20.5 22.2-3.4 95.6-54.6 182.6-134.8 235.5-10.2 6.9-23.9 5.2-30.7-5.1zM215-32.4c0-11.9 10.2-22.2 22.2-22.2s22.2 10.2 22.2 22.2c0 134.8 107.5 245.8 240.6 252.6h12c93.9 0 170.7 76.8 170.7 170.7S605.9 561.5 512 561.5s-170.7-76.8-170.7-170.7c0-58 29-110.9 75.1-141.7C300.4 208.2 215 97.3 215-32.4z m170.7 421.5c0 70 56.3 126.3 126.3 126.3s126.3-56.3 126.3-126.3c0-68.3-54.6-122.9-121.2-126.3-1.7 0-3.4 1.7-5.1 1.7h-11.9c-63.2 5.2-114.4 59.8-114.4 124.6z m455.7-126.3c34.1 25.6 56.3 66.6 56.3 112.6 0 78.5-63.1 141.7-141.7 141.7-17.1 0-32.4-3.4-47.8-8.5-11.9-3.4-17.1-17.1-13.7-27.3 3.4-11.9 17.1-17.1 27.3-13.7 10.2 3.4 22.2 5.1 32.4 5.1 54.6 0 97.3-44.4 97.3-97.3 0-51.2-39.3-92.2-88.7-97.3h-10.2c-1.7 0-3.4 0-5.1-1.7-11.9 0-22.2-8.5-22.2-20.5s8.5-22.2 20.5-22.2h15.4c102.4-5.1 186-87 191.1-191.1 0-11.9 10.2-20.5 22.2-20.5h1.7c11.9 0 22.2 10.2 20.5 22.2-1.7 100.8-66.6 184.4-155.3 218.5zM46.1 22.2c11.9 0 22.2 8.5 22.2 20.5 5.1 104.1 87 186 191.1 191.1h15.4c11.9 0 22.2 10.2 20.5 22.2 0 11.9-10.2 22.2-22.2 20.5-1.7 0-3.4 1.7-5.1 1.7h-10.2c-47.8 3.4-87 46.1-87 97.3 0 54.6 44.4 97.3 97.3 97.3 11.9 0 22.2-1.7 32.4-5.1 11.9-3.4 23.9 1.7 27.3 13.7s-1.7 23.9-13.7 27.3c-15.4 5.1-30.7 8.5-47.8 8.5-78.5 0-141.7-63.1-141.7-141.7 0-46.1 22.2-87 56.3-112.6C92.2 228.7 27.3 145.1 22.2 44.4c1.7-12 11.9-22.2 23.9-22.2z"  horiz-adv-x="1024" />

    
    <glyph glyph-name="biaochi" unicode="&#58915;" d="M51.2 844.8v-921.6h204.8V640h716.8V844.8H51.2zM0 896h1024v-307.2H307.2v-716.8H0V896zM256 742.4h51.2v-102.4H256zM512 742.4h51.2v-102.4h-51.2zM768 742.4h51.2v-102.4h-51.2zM153.6 640h102.4v-51.2H153.6zM153.6 384h102.4v-51.2H153.6zM153.6 128h102.4v-51.2H153.6z"  horiz-adv-x="1024" />

    
    <glyph glyph-name="tongjitu1" unicode="&#59924;" d="M959.3 386.3H484.7V833.1h55.8v-1.5c215-13.3 388.5-178.3 414.9-389.4h4v-55.9zM540.5 775.9v-333.7h358.3C873 622.4 724.6 762.7 540.5 775.9zM454.9 772.5c-188.5-27.9-333.3-189.9-333.3-386.2 0-215.9 175-390.9 390.9-390.9 198.7 0 362.4 148.4 387.3 340.3h56.4C931 112.8 742.1-60.5 512.5-60.5c-246.8 0-446.8 200-446.8 446.8C65.8 613.5 235.5 800.6 454.9 829v-56.5z"  horiz-adv-x="1024" />

    
    <glyph glyph-name="icon_shanjian" unicode="&#58898;" d="M965.417-119.707H62.173c-28.815 0-52.259 23.443-52.259 52.258V835.794c0 28.815 23.443 52.259 52.259 52.259h903.244c28.814 0 52.258-23.443 52.258-52.259V-67.45c0-28.814-23.444-52.257-52.258-52.257zM62.173 848.053c-6.759 0-12.259-5.5-12.259-12.259V-67.45c0-6.759 5.5-12.258 12.259-12.258h903.244c6.759 0 12.258 5.499 12.258 12.258V835.794c0 6.759-5.499 12.259-12.258 12.259H62.173zM836.382 364.174H191.208c-11.046 0-20 8.954-20 20s8.954 20 20 20h645.174c11.046 0 20-8.954 20-20s-8.954-20-20-20z"  horiz-adv-x="1024" />

    
    <glyph glyph-name="anniu1" unicode="&#58894;" d="M1588.286 174.874c-2.596 0-5.118-0.26-7.677-0.383v0.371H162.205v-0.37c-2.56 0.135-5.081 0.382-7.677 0.382-81.925 0-148.347-66.41-148.347-148.346s66.422-148.347 148.347-148.347c2.596 0 5.118 0.26 7.677 0.383v-0.383h1418.392v0.383c2.559-0.136 5.08-0.383 7.677-0.383 81.924 0 148.346 66.41 148.346 148.347s-66.422 148.346-148.334 148.346z m-746.122-283.317H163.317v0.359c-2.324-0.136-4.623-0.359-6.984-0.359-74.532 0-134.959 60.427-134.959 134.97S81.814 161.5 156.333 161.5c2.36 0 4.66-0.235 6.984-0.359v0.346h678.847v-269.929z"  horiz-adv-x="1743" />

    
    <glyph glyph-name="guanbi" unicode="&#58895;" d="M891.264-5.248a30.784 30.784 0 0 0-21.76 9.024L128.256 745.024a30.72 30.72 0 1 0 43.52 43.52l741.312-741.312a30.848 30.848 0 0 0-21.824-52.48M150.016-5.248a30.72 30.72 0 0 0-21.76 52.544l741.312 741.248a30.784 30.784 0 0 0 43.456-43.52L171.776 3.776a30.72 30.72 0 0 0-21.76-9.024"  horiz-adv-x="1024" />

    
    <glyph glyph-name="gongwenyinzhangguanli" unicode="&#58897;" d="M374.3808704 392.3829248l-46.80466133-112.04193173c-6.705248-12.9389568-6.7925696-27.28489067-0.14517334-38.7350048 6.94756693-11.9674976 20.2860224-19.1115392 35.68200534-19.1115392l299.9875328 0c15.41672213 0 28.7660928 7.1527744 35.71038506 19.1333696 6.63866453 11.4522976 6.53715307 25.7938656-0.17791893 38.72627306l-47.0764512 112.69139094c71.16426027 46.68568427 114.44219947 125.77879467 114.44219947 211.908976 0 139.8070944-113.73598187 253.54853333-253.53761814 253.54853333S258.92136853 744.7604608 258.92136853 604.9533664C258.92136853 518.4138613299999 302.611904 438.979104 374.3808704 392.3829248zM512.46007893 803.86335147c109.67441067 0 198.90016213-89.23120853 198.90016214-198.90998614 0-74.18124053-40.95080427-141.7303648-106.8691872-176.2848224l0.00327466-0.00545813c-12.43139627-6.49894933-18.03420267-21.5390944-12.52854293-34.72146133l48.7977888-116.81081174L385.4500416 277.13081279999994l48.7966976 116.81081173c5.81565333 13.92133013-0.75533653 29.9231104-14.67775787 35.7387648-0.9321632 0.38967467-1.87524267 0.71931627-2.8237792 0.99983787-63.7473376 35.11441067-103.18637653 101.4890528-103.18637653 174.2731392C313.55991573 714.63323413 402.7856672 803.86335147 512.46007893 803.86335147zM186.31301867-91.18846932999998l652.29302826 0 0 54.6385472L186.31301867-36.54992213000003 186.31301867-91.18846932999998zM858.41288853 184.38707093000005L166.53455573 184.38707093000005c-28.2847296 0-49.61425067-28.7147904-49.61425066-66.79269653l0-47.3023968c0-38.07790613 21.32952107-66.79160533 49.61425066-66.79160533l691.8783328 0c28.27272213 0 49.59460267 28.7147904 49.59460267 66.79160533l0 47.3023968C908.00749227 155.67228052999997 886.68561067 184.38707093000005 858.41288853 184.38707093000005zM853.368944 70.2919776c0-5.52639893-0.98892267-9.59670187-1.9352768-12.15414933L173.50504533 58.13782827c-0.95072 2.555264-1.9451008 6.62665813-1.9451008 12.15414933l0 47.3023968c0 5.5274912 0.995472 9.59997653 1.9451008 12.15524053l677.92862294 0c0.94635307-2.5574464 1.9352768-6.6288416 1.9352768-12.15524053L853.368944 70.2919776z"  horiz-adv-x="1024" />

    
    <glyph glyph-name="rilijiantouyoushuang-copy" unicode="&#59925;" d="M521.43646067 396.022306c-0.548492 0.61708-1.111311 1.224949-1.701758 1.816445-16.319687 16.320372-42.775222 16.320372-59.09491 0L71.50919167 8.690792999999985c-16.319687-16.320372-16.319687-42.777018 0-59.09739 16.319687-16.31218499 42.767036-16.312185 59.086723 0l359.591845 359.606938L846.08546867-46.71230700000001c18.358113-18.350697 46.460148-20.005453 62.779835-3.693267 16.319687 16.320372 14.665001 44.431773-3.693112 62.78247l-381.752564 381.768587C522.77187567 394.793263 522.10877267 395.41546 521.43646067 396.022306zM460.63979266 815.666068L71.50919167 426.51810999c-16.319687-16.320372-16.319687-42.777018-1e-8-59.09738999 16.319687-16.31218499 42.767036-16.312185 59.08672302 0l359.59184499 359.60693801L846.08546867 371.11398799999995c18.358113-18.350697 46.460148-20.005453 62.779835-3.693267 16.319687 16.320372 14.665001 44.431773-3.693112 62.78246999l-381.75256401 381.76858701c-0.647753 0.648803-1.311879 1.271-1.98316699 1.87682199-0.548492 0.61708-1.111311 1.224949-1.701758 1.81644501C503.41501566 831.986441 476.95947967 831.986441 460.63979266 815.666068z"  horiz-adv-x="1024" />

    
    </font>
</defs>
</svg>
